<svg xmlns="http://www.w3.org/2000/svg" viewBox="0 0 64 64">
  <defs>
    <linearGradient id="grad" x1="0%" y1="0%" x2="100%" y2="100%">
      <stop offset="0%" style="stop-color:#586f7c;stop-opacity:1" />
      <stop offset="100%" style="stop-color:#2f4550;stop-opacity:1" />
    </linearGradient>
  </defs>

  <!-- Background circle -->
  <circle cx="32" cy="32" r="30" fill="url(#grad)"/>

  <!-- Letter S with modern design -->
  <path d="M 38 20 C 38 20 42 20 42 24 C 42 28 38 28 38 28 L 26 28 C 26 28 22 28 22 32 C 22 36 26 36 26 36 L 38 36 C 38 36 46 36 46 44 C 46 52 38 52 38 52 L 26 52 C 26 52 18 52 18 44"
        stroke="#b8dbd9"
        stroke-width="4"
        fill="none"
        stroke-linecap="round"
        stroke-linejoin="round"/>

  <!-- Small code brackets accent -->
  <text x="14" y="18" font-family="monospace" font-size="10" fill="#b8dbd9" opacity="0.6">&lt;</text>
  <text x="48" y="56" font-family="monospace" font-size="10" fill="#b8dbd9" opacity="0.6">/&gt;</text>
</svg>
