<svg id="svg" version="1.1" xmlns="http://www.w3.org/2000/svg" xmlns:xlink="http://www.w3.org/1999/xlink" width="400" height="400" viewBox="0, 0, 400,400"><g id="svgg"><path id="path0" d="M206.786 133.833 C 206.354 134.841,206.000 135.843,206.000 136.058 C 206.000 136.273,205.535 137.473,204.968 138.725 C 204.400 139.976,203.795 141.360,203.623 141.800 C 203.451 142.240,203.016 143.281,202.655 144.114 C 202.295 144.946,202.000 145.964,202.000 146.377 C 202.000 146.789,201.529 148.088,200.952 149.263 C 199.684 151.850,199.467 152.386,198.553 155.200 C 198.160 156.410,197.695 157.571,197.519 157.780 C 197.344 157.989,197.200 158.457,197.200 158.820 C 197.200 159.184,196.792 160.273,196.292 161.240 C 195.793 162.208,195.041 164.080,194.622 165.400 C 194.202 166.720,193.710 167.971,193.529 168.180 C 193.348 168.389,193.200 168.781,193.200 169.052 C 193.200 169.323,192.677 170.682,192.038 172.072 C 191.400 173.462,190.649 175.410,190.371 176.400 C 190.093 177.390,189.715 178.371,189.533 178.580 C 188.961 179.233,189.166 180.246,190.027 181.025 C 191.297 182.174,192.790 181.161,193.619 178.591 C 194.529 175.768,194.766 175.146,195.420 173.868 C 195.739 173.245,196.000 172.480,196.000 172.168 C 196.000 171.855,196.164 171.600,196.365 171.600 C 196.566 171.600,196.851 170.881,197.000 170.002 C 197.148 169.123,197.434 168.303,197.635 168.178 C 197.836 168.054,198.000 167.601,198.000 167.171 C 198.000 166.741,198.154 166.077,198.341 165.695 C 198.693 164.979,199.575 162.956,200.302 161.200 C 200.529 160.650,201.018 159.300,201.389 158.200 C 201.759 157.100,202.247 155.750,202.473 155.200 C 203.276 153.246,203.894 151.787,204.335 150.800 C 204.581 150.250,205.065 148.900,205.411 147.800 C 206.072 145.699,206.198 145.376,207.580 142.263 C 210.766 135.080,211.120 132.000,208.759 132.000 C 207.729 132.000,207.467 132.244,206.786 133.833 M185.518 142.155 C 184.016 143.239,178.995 147.167,176.592 149.138 C 176.148 149.502,175.068 150.331,174.192 150.979 C 170.889 153.425,168.000 156.144,168.000 156.808 C 168.000 157.598,170.394 159.632,181.172 168.000 C 183.014 169.430,185.103 171.095,185.813 171.700 C 187.754 173.352,190.000 172.924,190.000 170.902 C 190.000 170.281,188.020 168.426,185.000 166.216 C 184.120 165.572,183.220 164.855,183.000 164.623 C 182.780 164.390,181.610 163.455,180.400 162.544 C 179.190 161.634,177.840 160.545,177.400 160.124 C 176.960 159.704,176.021 159.018,175.313 158.601 C 173.015 157.247,173.581 155.830,177.400 153.372 C 178.060 152.948,179.140 152.116,179.800 151.524 C 181.345 150.139,184.773 147.426,187.724 145.252 C 189.667 143.820,190.027 143.367,189.924 142.484 C 189.719 140.739,187.689 140.588,185.518 142.155 M211.300 141.216 C 209.495 141.934,210.158 143.261,213.800 146.216 C 215.120 147.288,216.380 148.312,216.600 148.493 C 216.820 148.674,219.115 150.451,221.700 152.441 C 227.122 156.616,227.236 156.901,224.340 159.062 C 223.207 159.908,221.800 160.960,221.215 161.400 C 220.032 162.289,216.313 165.286,216.000 165.602 C 215.890 165.714,215.080 166.328,214.200 166.967 C 210.838 169.410,209.740 171.180,210.880 172.320 C 211.796 173.236,214.609 172.173,216.000 170.385 C 216.110 170.244,216.920 169.604,217.800 168.964 C 218.680 168.324,219.760 167.500,220.200 167.133 C 221.563 165.998,225.321 163.059,227.000 161.815 C 229.944 159.634,232.000 157.491,232.000 156.605 C 232.000 155.814,230.522 154.000,229.877 154.000 C 229.557 154.000,227.735 152.497,226.846 151.500 C 226.503 151.115,226.069 150.800,225.883 150.800 C 225.696 150.800,225.309 150.575,225.022 150.300 C 224.736 150.025,223.091 148.720,221.366 147.400 C 219.642 146.080,217.853 144.640,217.392 144.200 C 214.623 141.560,212.746 140.641,211.300 141.216 " stroke="none" fill="#3ad194" fill-rule="evenodd"></path><path id="path1" d="M205.758 131.577 C 204.308 133.204,203.600 134.680,203.600 136.074 C 203.600 136.725,203.330 137.527,203.000 137.857 C 202.670 138.187,202.400 138.879,202.400 139.395 C 202.400 139.911,202.265 140.393,202.100 140.467 C 201.572 140.701,200.400 143.095,200.400 143.938 C 200.400 144.386,200.220 144.864,200.000 145.000 C 199.780 145.136,199.600 145.867,199.600 146.624 C 199.600 147.381,199.455 148.000,199.277 148.000 C 198.997 148.000,198.641 148.703,197.451 151.600 C 197.316 151.930,197.046 152.470,196.851 152.800 C 196.314 153.711,195.600 156.154,195.600 157.079 C 195.600 157.532,195.330 158.126,195.000 158.400 C 194.670 158.674,194.400 159.236,194.400 159.649 C 194.400 160.062,194.220 160.400,194.000 160.400 C 193.780 160.400,193.600 160.929,193.600 161.576 C 193.600 162.223,193.417 162.866,193.194 163.004 C 192.620 163.359,191.600 165.923,191.600 167.011 C 191.600 168.365,190.359 167.878,187.874 165.550 C 186.733 164.481,185.577 163.605,185.305 163.603 C 185.033 163.601,184.133 162.880,183.305 162.001 C 182.477 161.121,181.603 160.401,181.361 160.401 C 181.120 160.400,180.274 159.770,179.481 159.000 C 178.688 158.230,177.928 157.600,177.791 157.600 C 177.655 157.600,177.273 157.330,176.943 157.000 C 176.410 156.467,176.432 156.400,177.145 156.400 C 177.586 156.400,178.871 155.500,180.000 154.400 C 181.129 153.300,182.235 152.400,182.457 152.400 C 182.680 152.400,183.377 151.905,184.006 151.300 C 186.372 149.026,187.123 148.400,187.489 148.400 C 188.713 148.400,192.400 143.997,192.400 142.534 C 192.400 141.676,191.241 139.600,190.761 139.600 C 190.531 139.600,190.073 139.330,189.743 139.000 C 189.413 138.670,188.728 138.400,188.220 138.400 C 187.713 138.400,187.074 138.670,186.800 139.000 C 186.526 139.330,185.958 139.600,185.538 139.600 C 185.117 139.600,184.273 140.095,183.662 140.700 C 182.217 142.129,180.451 143.600,180.179 143.600 C 180.062 143.600,179.480 144.050,178.887 144.600 C 178.293 145.150,177.612 145.600,177.372 145.600 C 177.132 145.600,176.717 146.005,176.451 146.500 C 176.184 146.995,175.297 147.723,174.479 148.118 C 173.660 148.513,172.565 149.458,172.044 150.218 C 171.499 151.013,170.759 151.600,170.302 151.600 C 169.864 151.600,168.807 152.320,167.953 153.200 C 164.920 156.326,165.864 159.383,170.916 162.800 C 171.729 163.350,172.396 163.935,172.397 164.100 C 172.399 164.265,172.579 164.400,172.797 164.400 C 173.177 164.400,173.771 164.864,176.508 167.300 C 177.188 167.905,177.939 168.400,178.177 168.400 C 178.415 168.400,178.948 168.850,179.361 169.400 C 179.774 169.950,180.332 170.400,180.600 170.400 C 180.868 170.400,181.426 170.850,181.839 171.400 C 182.252 171.950,182.817 172.400,183.095 172.400 C 183.373 172.400,183.602 172.535,183.605 172.700 C 183.608 172.865,184.553 173.591,185.705 174.314 L 187.800 175.627 187.669 178.824 C 187.549 181.765,187.613 182.084,188.469 182.798 C 190.312 184.333,194.400 183.555,194.400 181.669 C 194.400 181.411,194.556 181.200,194.746 181.200 C 195.220 181.200,196.400 178.011,196.400 176.729 C 196.400 176.155,196.670 175.582,197.000 175.455 C 197.330 175.329,197.600 174.780,197.600 174.236 C 197.600 173.692,197.780 173.136,198.000 173.000 C 198.220 172.864,198.400 172.481,198.400 172.148 C 198.400 171.815,198.670 171.273,199.000 170.943 C 199.330 170.613,199.600 169.916,199.600 169.395 C 199.600 168.874,199.780 168.336,200.000 168.200 C 200.220 168.064,200.400 167.355,200.400 166.625 C 200.400 165.895,200.670 165.074,201.000 164.800 C 201.330 164.526,201.600 164.054,201.600 163.751 C 201.600 163.448,201.780 163.200,202.000 163.200 C 202.220 163.200,202.400 162.867,202.400 162.460 C 202.400 162.052,202.850 160.873,203.400 159.838 C 203.950 158.804,204.400 157.337,204.400 156.579 C 204.400 155.820,204.556 155.200,204.746 155.200 C 205.112 155.200,206.400 152.131,206.400 151.258 C 206.400 150.975,206.670 150.473,207.000 150.143 C 207.330 149.813,207.600 149.206,207.600 148.795 C 207.600 148.384,207.780 147.936,208.000 147.800 C 208.220 147.664,208.400 147.113,208.400 146.576 C 208.400 145.467,208.869 145.320,209.600 146.200 C 209.873 146.529,211.290 147.650,212.749 148.689 C 214.207 149.729,215.781 150.989,216.246 151.490 C 216.711 151.990,217.284 152.400,217.519 152.400 C 217.754 152.400,218.871 153.300,220.000 154.400 C 221.129 155.500,222.423 156.400,222.876 156.400 C 223.561 156.400,223.615 156.500,223.200 157.000 C 222.926 157.330,222.520 157.600,222.298 157.600 C 222.076 157.600,221.300 158.230,220.574 159.000 C 219.848 159.770,219.062 160.400,218.827 160.400 C 218.593 160.400,217.699 161.075,216.840 161.900 C 215.982 162.725,214.809 163.678,214.235 164.017 C 213.099 164.688,210.047 167.230,208.543 168.758 C 207.168 170.156,207.749 174.400,209.315 174.400 C 209.503 174.400,209.927 174.670,210.257 175.000 C 211.029 175.772,212.971 175.772,213.743 175.000 C 214.073 174.670,214.523 174.400,214.742 174.400 C 214.962 174.400,215.496 173.950,215.929 173.400 C 216.361 172.850,216.871 172.400,217.062 172.400 C 217.252 172.400,217.893 171.950,218.487 171.400 C 219.080 170.850,219.734 170.400,219.940 170.400 C 220.146 170.400,220.415 170.138,220.538 169.817 C 220.661 169.496,221.535 168.746,222.480 168.150 C 223.425 167.553,224.780 166.466,225.492 165.733 C 226.203 165.000,226.926 164.400,227.097 164.400 C 227.268 164.400,227.893 163.950,228.487 163.400 C 229.080 162.850,229.671 162.400,229.801 162.400 C 232.153 162.400,234.688 155.946,233.000 154.257 C 232.670 153.927,232.400 153.493,232.400 153.292 C 232.400 153.090,231.737 152.583,230.926 152.163 C 230.115 151.743,228.778 150.770,227.954 150.000 C 225.917 148.094,225.290 147.600,224.912 147.600 C 224.735 147.600,224.252 147.150,223.839 146.600 C 223.426 146.050,222.843 145.600,222.544 145.600 C 222.245 145.600,222.000 145.455,222.000 145.277 C 222.000 144.973,219.136 142.719,217.536 141.765 C 217.134 141.525,216.468 140.940,216.056 140.465 C 215.644 139.989,215.034 139.600,214.702 139.600 C 214.370 139.600,213.874 139.330,213.600 139.000 C 213.326 138.670,212.764 138.400,212.351 138.400 C 211.938 138.400,211.600 138.130,211.600 137.800 C 211.600 137.470,211.780 137.200,212.000 137.200 C 212.894 137.200,212.461 131.979,211.500 131.177 C 209.994 129.921,207.051 130.126,205.758 131.577 M210.203 132.809 C 210.626 134.143,209.698 137.488,207.580 142.263 C 206.198 145.376,206.072 145.699,205.411 147.800 C 205.065 148.900,204.581 150.250,204.335 150.800 C 203.894 151.787,203.276 153.246,202.473 155.200 C 202.247 155.750,201.759 157.100,201.389 158.200 C 201.018 159.300,200.529 160.650,200.302 161.200 C 199.575 162.956,198.693 164.979,198.341 165.695 C 198.154 166.077,198.000 166.741,198.000 167.171 C 198.000 167.601,197.836 168.054,197.635 168.178 C 197.434 168.303,197.148 169.123,197.000 170.002 C 196.851 170.881,196.566 171.600,196.365 171.600 C 196.164 171.600,196.000 171.855,196.000 172.168 C 196.000 172.480,195.739 173.245,195.420 173.868 C 194.766 175.146,194.529 175.768,193.619 178.591 C 192.790 181.161,191.297 182.174,190.027 181.025 C 189.166 180.246,188.961 179.233,189.533 178.580 C 189.715 178.371,190.093 177.390,190.371 176.400 C 190.649 175.410,191.400 173.462,192.038 172.072 C 192.677 170.682,193.200 169.323,193.200 169.052 C 193.200 168.781,193.348 168.389,193.529 168.180 C 193.710 167.971,194.202 166.720,194.622 165.400 C 195.041 164.080,195.793 162.208,196.292 161.240 C 196.792 160.273,197.200 159.184,197.200 158.820 C 197.200 158.457,197.344 157.989,197.519 157.780 C 197.695 157.571,198.160 156.410,198.553 155.200 C 199.467 152.386,199.684 151.850,200.952 149.263 C 201.529 148.088,202.000 146.789,202.000 146.377 C 202.000 145.964,202.295 144.946,202.655 144.114 C 203.016 143.281,203.451 142.240,203.623 141.800 C 203.795 141.360,204.400 139.976,204.968 138.725 C 205.535 137.473,206.000 136.273,206.000 136.058 C 206.000 133.228,209.482 130.536,210.203 132.809 M189.924 142.484 C 190.027 143.367,189.667 143.820,187.724 145.252 C 184.773 147.426,181.345 150.139,179.800 151.524 C 179.140 152.116,178.060 152.948,177.400 153.372 C 173.581 155.830,173.015 157.247,175.313 158.601 C 176.021 159.018,176.960 159.704,177.400 160.124 C 177.840 160.545,179.190 161.634,180.400 162.544 C 181.610 163.455,182.780 164.390,183.000 164.623 C 183.220 164.855,184.120 165.572,185.000 166.216 C 188.020 168.426,190.000 170.281,190.000 170.902 C 190.000 172.924,187.754 173.352,185.813 171.700 C 185.103 171.095,183.014 169.430,181.172 168.000 C 170.394 159.632,168.000 157.598,168.000 156.808 C 168.000 156.144,170.889 153.425,174.192 150.979 C 175.068 150.331,176.148 149.502,176.592 149.138 C 178.995 147.167,184.016 143.239,185.518 142.155 C 187.689 140.588,189.719 140.739,189.924 142.484 M215.176 142.358 C 215.933 142.931,216.930 143.760,217.392 144.200 C 217.853 144.640,219.642 146.080,221.366 147.400 C 223.091 148.720,224.736 150.025,225.022 150.300 C 225.309 150.575,225.696 150.800,225.883 150.800 C 226.069 150.800,226.503 151.115,226.846 151.500 C 227.735 152.497,229.557 154.000,229.877 154.000 C 230.522 154.000,232.000 155.814,232.000 156.605 C 232.000 157.491,229.944 159.634,227.000 161.815 C 225.321 163.059,221.563 165.998,220.200 167.133 C 219.760 167.500,218.680 168.324,217.800 168.964 C 216.920 169.604,216.110 170.244,216.000 170.385 C 214.609 172.173,211.796 173.236,210.880 172.320 C 209.740 171.180,210.838 169.410,214.200 166.967 C 215.080 166.328,215.890 165.714,216.000 165.602 C 216.313 165.286,220.032 162.289,221.215 161.400 C 221.800 160.960,223.207 159.908,224.340 159.062 C 227.236 156.901,227.122 156.616,221.700 152.441 C 219.115 150.451,216.820 148.674,216.600 148.493 C 216.380 148.312,215.120 147.288,213.800 146.216 C 210.158 143.261,209.495 141.934,211.300 141.216 C 212.450 140.759,213.456 141.055,215.176 142.358 M229.680 194.795 C 227.118 195.401,227.920 195.600,232.933 195.600 C 235.720 195.600,238.000 195.442,238.000 195.250 C 238.000 194.444,232.442 194.140,229.680 194.795 M168.800 195.200 C 168.176 195.400,169.531 195.520,172.400 195.520 C 175.269 195.520,176.624 195.400,176.000 195.200 C 175.450 195.024,173.830 194.880,172.400 194.880 C 170.970 194.880,169.350 195.024,168.800 195.200 M161.400 196.000 C 161.253 196.239,161.737 196.400,162.600 196.400 C 163.463 196.400,163.947 196.239,163.800 196.000 C 163.664 195.780,163.124 195.600,162.600 195.600 C 162.076 195.600,161.536 195.780,161.400 196.000 M181.600 196.000 C 181.600 196.220,182.365 196.397,183.300 196.394 C 184.545 196.389,184.839 196.284,184.400 196.000 C 183.610 195.490,181.600 195.490,181.600 196.000 M221.117 196.145 C 220.301 196.399,219.410 196.830,219.137 197.103 C 218.863 197.377,218.226 197.600,217.720 197.600 C 217.214 197.600,216.800 197.780,216.800 198.000 C 216.800 198.220,216.549 198.400,216.243 198.400 C 215.936 198.400,215.582 198.670,215.455 199.000 C 215.299 199.408,215.477 199.600,216.013 199.600 C 216.446 199.600,216.800 199.455,216.800 199.277 C 216.800 198.828,219.682 197.600,220.734 197.600 C 221.237 197.600,221.600 197.348,221.600 197.000 C 221.600 196.568,222.042 196.400,223.176 196.400 C 224.043 196.400,224.864 196.220,225.000 196.000 C 225.329 195.468,223.014 195.555,221.117 196.145 M242.400 196.000 C 242.400 196.220,242.951 196.400,243.624 196.400 C 244.337 196.400,244.744 196.233,244.600 196.000 C 244.464 195.780,243.913 195.600,243.376 195.600 C 242.839 195.600,242.400 195.780,242.400 196.000 M159.057 197.000 C 158.727 197.330,158.084 197.600,157.629 197.600 C 157.173 197.600,156.800 197.780,156.800 198.000 C 156.800 198.220,156.530 198.400,156.200 198.400 C 155.870 198.400,155.600 198.670,155.600 199.000 C 155.600 199.330,155.851 199.600,156.157 199.600 C 156.464 199.600,156.818 199.330,156.945 199.000 C 157.071 198.670,157.541 198.400,157.987 198.400 C 158.434 198.400,158.800 198.220,158.800 198.000 C 158.800 197.780,159.250 197.600,159.800 197.600 C 160.422 197.600,160.800 197.373,160.800 197.000 C 160.800 196.670,160.543 196.400,160.229 196.400 C 159.914 196.400,159.387 196.670,159.057 197.000 M185.600 197.000 C 185.600 197.400,186.000 197.600,186.800 197.600 C 187.460 197.600,188.000 197.780,188.000 198.000 C 188.000 198.220,188.540 198.400,189.200 198.400 C 190.000 198.400,190.400 198.600,190.400 199.000 C 190.400 199.373,190.778 199.600,191.400 199.600 C 191.950 199.600,192.399 199.465,192.397 199.300 C 192.393 198.803,190.001 197.600,189.017 197.600 C 188.511 197.600,187.874 197.330,187.600 197.000 C 187.326 196.670,186.764 196.400,186.351 196.400 C 185.938 196.400,185.600 196.670,185.600 197.000 M245.600 197.000 C 245.600 197.369,245.975 197.600,246.576 197.600 C 247.113 197.600,247.664 197.780,247.800 198.000 C 247.936 198.220,248.384 198.400,248.795 198.400 C 249.206 198.400,249.813 198.670,250.143 199.000 C 250.473 199.330,251.071 199.594,251.471 199.586 C 252.549 199.564,250.057 197.605,248.949 197.602 C 248.481 197.601,247.874 197.330,247.600 197.000 C 247.326 196.670,246.764 196.400,246.351 196.400 C 245.938 196.400,245.600 196.670,245.600 197.000 M152.654 200.840 C 152.024 201.501,151.644 202.167,151.809 202.321 C 151.974 202.474,152.190 202.375,152.288 202.100 C 152.386 201.825,152.722 201.600,153.033 201.600 C 153.345 201.600,153.600 201.330,153.600 201.000 C 153.600 200.670,153.870 200.400,154.200 200.400 C 154.530 200.400,154.800 200.220,154.800 200.000 C 154.800 199.247,153.800 199.638,152.654 200.840 M193.200 200.000 C 193.200 200.220,193.571 200.400,194.024 200.400 C 194.477 200.400,194.736 200.220,194.600 200.000 C 194.464 199.780,194.093 199.600,193.776 199.600 C 193.459 199.600,193.200 199.780,193.200 200.000 M212.238 200.600 C 211.644 201.150,211.079 201.600,210.982 201.600 C 210.757 201.600,209.126 202.990,207.147 204.869 C 206.296 205.676,205.600 206.621,205.600 206.969 C 205.600 207.316,205.407 207.600,205.171 207.600 C 204.553 207.600,203.600 208.645,203.600 209.322 C 203.600 209.641,203.330 210.126,203.000 210.400 C 202.670 210.674,202.400 211.084,202.400 211.311 C 202.400 211.539,201.950 212.314,201.400 213.036 C 200.274 214.512,200.104 215.600,201.000 215.600 C 201.373 215.600,201.600 215.222,201.600 214.600 C 201.600 214.050,201.780 213.600,202.000 213.600 C 202.220 213.600,202.400 213.324,202.400 212.987 C 202.400 212.651,202.670 212.271,203.000 212.145 C 203.330 212.018,203.600 211.496,203.600 210.984 C 203.600 210.408,204.362 209.271,205.600 208.000 C 206.700 206.871,207.600 205.729,207.600 205.462 C 207.600 204.906,208.785 203.861,209.628 203.673 C 209.943 203.603,210.581 203.108,211.047 202.573 C 211.512 202.038,212.097 201.600,212.347 201.600 C 212.596 201.600,212.800 201.330,212.800 201.000 C 212.800 200.478,213.531 200.200,214.500 200.353 C 214.665 200.379,214.800 200.220,214.800 200.000 C 214.800 199.251,213.320 199.597,212.238 200.600 M255.120 201.280 C 255.793 201.953,255.719 204.224,255.000 204.943 C 254.670 205.273,254.400 205.743,254.400 205.988 C 254.400 206.407,254.098 206.850,252.900 208.185 C 252.292 208.864,252.238 210.400,252.822 210.400 C 253.055 210.400,253.610 209.635,254.057 208.700 C 254.504 207.765,255.210 206.370,255.626 205.600 C 256.713 203.588,256.391 200.800,255.071 200.800 C 254.790 200.800,254.807 200.967,255.120 201.280 M195.628 202.071 C 195.613 202.661,195.330 203.413,195.000 203.743 C 194.366 204.376,194.194 205.207,194.700 205.190 C 195.319 205.170,196.280 202.599,195.968 201.800 C 195.695 201.099,195.653 201.133,195.628 202.071 M150.300 203.557 C 149.915 203.948,149.600 204.455,149.600 204.685 C 149.600 204.914,149.330 205.326,149.000 205.600 C 148.670 205.874,148.400 206.340,148.400 206.636 C 148.400 206.951,148.650 207.079,149.000 206.945 C 149.330 206.818,149.600 206.464,149.600 206.157 C 149.600 205.851,149.759 205.600,149.953 205.600 C 150.148 205.600,150.406 205.222,150.526 204.760 C 150.647 204.297,150.938 204.038,151.173 204.183 C 151.423 204.338,151.600 204.105,151.600 203.624 C 151.600 202.630,151.233 202.611,150.300 203.557 M193.600 206.357 C 193.600 206.774,193.330 207.218,193.000 207.345 C 192.353 207.593,192.157 209.200,192.773 209.200 C 192.978 209.200,193.260 208.840,193.400 208.400 C 193.540 207.960,193.822 207.600,194.027 207.600 C 194.232 207.600,194.400 207.150,194.400 206.600 C 194.400 206.050,194.220 205.600,194.000 205.600 C 193.780 205.600,193.600 205.941,193.600 206.357 M147.819 208.100 C 147.652 208.485,147.652 209.115,147.819 209.500 C 148.109 210.167,148.132 210.167,148.291 209.500 C 148.574 208.319,148.203 207.219,147.819 208.100 M167.200 209.000 C 167.200 209.346,166.838 209.600,166.346 209.600 C 165.505 209.600,163.600 211.279,163.600 212.021 C 163.600 212.229,163.330 212.400,163.000 212.400 C 162.539 212.400,162.400 212.911,162.400 214.600 C 162.400 216.289,162.539 216.800,163.000 216.800 C 163.330 216.800,163.600 217.070,163.600 217.400 C 163.600 218.252,165.056 219.600,165.976 219.600 C 166.403 219.600,166.864 219.780,167.000 220.000 C 167.136 220.220,167.757 220.400,168.381 220.400 C 169.019 220.400,169.615 220.662,169.745 221.000 C 169.871 221.330,170.431 221.600,170.987 221.600 C 171.544 221.600,172.000 221.780,172.000 222.000 C 172.000 222.220,172.456 222.400,173.013 222.400 C 173.569 222.400,174.129 222.670,174.255 223.000 C 174.495 223.625,177.200 223.880,177.200 223.277 C 177.200 222.867,174.358 221.600,173.437 221.600 C 173.055 221.600,172.473 221.330,172.143 221.000 C 171.813 220.670,171.116 220.400,170.595 220.400 C 170.074 220.400,169.536 220.220,169.400 220.000 C 169.264 219.780,168.791 219.600,168.350 219.600 C 167.550 219.600,165.039 217.941,164.113 216.800 C 162.618 214.960,164.334 210.400,166.522 210.400 C 166.895 210.400,167.200 210.220,167.200 210.000 C 167.200 209.753,169.267 209.600,172.600 209.600 C 177.133 209.600,178.000 209.504,178.000 209.000 C 178.000 208.496,177.133 208.400,172.600 208.400 C 168.067 208.400,167.200 208.496,167.200 209.000 M178.800 210.000 C 178.800 210.220,179.318 210.400,179.951 210.400 C 180.584 210.400,181.326 210.670,181.600 211.000 C 182.210 211.735,184.138 211.819,183.902 211.100 C 183.812 210.825,183.257 210.543,182.669 210.473 C 182.081 210.404,181.600 210.179,181.600 209.973 C 181.600 209.768,180.970 209.600,180.200 209.600 C 179.430 209.600,178.800 209.780,178.800 210.000 M227.800 210.000 C 227.664 210.220,227.023 210.400,226.376 210.400 C 225.597 210.400,225.200 210.603,225.200 211.000 C 225.200 211.767,226.418 211.773,227.424 211.013 C 227.851 210.690,228.864 210.420,229.676 210.413 C 230.488 210.406,231.264 210.220,231.400 210.000 C 231.551 209.756,230.945 209.600,229.847 209.600 C 228.857 209.600,227.936 209.780,227.800 210.000 M235.800 210.000 C 236.240 210.189,237.288 210.356,238.129 210.372 C 238.969 210.387,239.937 210.680,240.279 211.022 C 240.942 211.685,243.000 211.669,243.000 211.000 C 243.000 210.780,242.415 210.544,241.700 210.475 C 240.985 210.406,240.400 210.181,240.400 209.975 C 240.400 209.769,239.185 209.613,237.700 209.628 C 235.821 209.648,235.243 209.761,235.800 210.000 M191.714 211.100 C 191.454 211.815,191.037 212.400,190.787 212.400 C 190.538 212.400,190.398 212.594,190.477 212.830 C 190.638 213.313,191.168 213.360,191.260 212.900 C 191.293 212.735,191.581 212.410,191.898 212.178 C 192.218 211.944,192.411 211.318,192.331 210.778 C 192.193 209.851,192.161 209.868,191.714 211.100 M251.606 212.300 C 251.611 213.157,251.698 213.268,252.000 212.800 C 252.506 212.017,252.506 211.200,252.000 211.200 C 251.780 211.200,251.603 211.695,251.606 212.300 M184.400 212.000 C 184.400 212.220,184.850 212.400,185.400 212.400 C 185.950 212.400,186.400 212.220,186.400 212.000 C 186.400 211.780,185.950 211.600,185.400 211.600 C 184.850 211.600,184.400 211.780,184.400 212.000 M223.400 212.000 C 223.264 212.220,223.423 212.400,223.753 212.400 C 224.083 212.400,224.464 212.220,224.600 212.000 C 224.736 211.780,224.577 211.600,224.247 211.600 C 223.917 211.600,223.536 211.780,223.400 212.000 M243.400 212.000 C 243.536 212.220,244.177 212.400,244.824 212.400 C 245.471 212.400,246.001 212.535,246.003 212.700 C 246.004 212.865,246.559 213.315,247.235 213.700 C 248.561 214.455,251.200 214.654,251.200 214.000 C 251.200 213.780,250.679 213.600,250.043 213.600 C 249.383 213.600,248.787 213.342,248.655 213.000 C 248.529 212.670,247.969 212.400,247.413 212.400 C 246.856 212.400,246.400 212.220,246.400 212.000 C 246.400 211.780,245.669 211.600,244.776 211.600 C 243.796 211.600,243.251 211.758,243.400 212.000 M186.800 212.726 C 186.800 212.905,187.423 213.349,188.185 213.712 C 189.694 214.432,190.458 214.001,189.454 212.997 C 188.828 212.371,186.800 212.164,186.800 212.726 M221.200 212.912 C 221.200 213.193,220.840 213.683,220.400 214.000 C 219.960 214.317,219.600 214.807,219.600 215.088 C 219.600 215.370,219.373 215.600,219.095 215.600 C 218.817 215.600,218.254 216.047,217.845 216.592 C 217.435 217.138,216.942 217.488,216.750 217.369 C 216.557 217.250,216.400 217.433,216.400 217.776 C 216.400 218.119,216.670 218.400,217.000 218.400 C 217.330 218.400,217.600 218.246,217.600 218.057 C 217.600 217.636,221.597 213.600,222.014 213.600 C 222.179 213.600,222.418 213.330,222.545 213.000 C 222.701 212.592,222.523 212.400,221.987 212.400 C 221.554 212.400,221.200 212.630,221.200 212.912 M199.734 216.627 C 199.602 216.972,199.698 217.458,199.947 217.707 C 200.284 218.044,200.400 217.884,200.400 217.080 C 200.400 215.877,200.101 215.673,199.734 216.627 M215.606 220.500 C 215.611 221.228,215.686 221.285,216.000 220.800 C 216.501 220.024,216.501 219.600,216.000 219.600 C 215.780 219.600,215.603 220.005,215.606 220.500 M147.600 221.176 C 147.600 221.823,147.780 222.464,148.000 222.600 C 148.238 222.747,148.400 222.271,148.400 221.424 C 148.400 220.641,148.220 220.000,148.000 220.000 C 147.780 220.000,147.600 220.529,147.600 221.176 M198.900 220.856 C 198.625 221.133,198.400 222.033,198.400 222.856 C 198.400 223.679,198.220 224.464,198.000 224.600 C 197.767 224.744,197.600 226.996,197.600 230.000 C 197.600 233.004,197.767 235.256,198.000 235.400 C 198.220 235.536,198.400 236.342,198.400 237.191 C 198.400 238.941,198.718 240.000,199.243 240.000 C 199.868 240.000,199.657 235.600,199.000 234.943 C 198.120 234.063,198.137 225.920,199.021 225.036 C 199.459 224.598,199.607 223.815,199.521 222.384 C 199.424 220.757,199.301 220.453,198.900 220.856 M214.656 221.478 C 214.515 221.618,214.400 222.333,214.400 223.067 C 214.400 223.800,214.220 224.400,214.000 224.400 C 213.752 224.400,213.600 226.533,213.600 230.000 C 213.600 233.467,213.752 235.600,214.000 235.600 C 214.220 235.600,214.400 236.245,214.400 237.033 C 214.400 238.001,214.562 238.413,214.900 238.302 C 215.652 238.054,215.726 236.583,215.021 235.878 C 214.143 235.001,214.136 224.982,215.013 223.824 C 215.899 222.651,215.580 220.553,214.656 221.478 M148.400 223.771 C 148.400 224.086,148.670 224.613,149.000 224.943 C 149.330 225.273,149.600 225.644,149.600 225.767 C 149.600 226.133,150.952 227.600,151.289 227.600 C 151.460 227.600,151.600 227.330,151.600 227.000 C 151.600 226.670,151.330 226.400,151.000 226.400 C 150.670 226.400,150.400 226.130,150.400 225.800 C 150.400 225.470,150.220 225.200,150.000 225.200 C 149.780 225.200,149.600 224.750,149.600 224.200 C 149.600 223.578,149.373 223.200,149.000 223.200 C 148.670 223.200,148.400 223.457,148.400 223.771 M179.000 224.000 C 179.136 224.220,179.607 224.400,180.047 224.400 C 180.487 224.400,180.736 224.220,180.600 224.000 C 180.464 223.780,179.993 223.600,179.553 223.600 C 179.113 223.600,178.864 223.780,179.000 224.000 M181.200 225.000 C 181.200 225.373,181.578 225.600,182.200 225.600 C 182.750 225.600,183.200 225.780,183.200 226.000 C 183.200 226.220,183.566 226.400,184.013 226.400 C 184.459 226.400,184.929 226.670,185.055 227.000 C 185.308 227.657,187.200 227.841,187.200 227.208 C 187.200 226.992,186.750 226.702,186.200 226.564 C 185.650 226.426,185.200 226.153,185.200 225.957 C 185.200 225.760,184.862 225.600,184.449 225.600 C 184.036 225.600,183.474 225.330,183.200 225.000 C 182.926 224.670,182.364 224.400,181.951 224.400 C 181.538 224.400,181.200 224.670,181.200 225.000 M188.000 228.000 C 188.000 228.220,188.270 228.400,188.600 228.400 C 188.930 228.400,189.200 228.670,189.200 229.000 C 189.200 229.330,189.392 229.600,189.626 229.600 C 190.077 229.600,194.400 233.768,194.400 234.202 C 194.400 234.343,194.670 234.727,195.000 235.057 C 195.330 235.387,195.600 236.040,195.600 236.509 C 195.600 237.147,195.714 237.246,196.057 236.903 C 196.565 236.395,195.486 233.600,194.781 233.600 C 194.572 233.600,194.400 233.407,194.400 233.171 C 194.400 232.618,193.382 231.600,192.829 231.600 C 192.593 231.600,192.400 231.370,192.400 231.089 C 192.400 230.535,190.144 228.400,189.559 228.400 C 189.361 228.400,189.200 228.220,189.200 228.000 C 189.200 227.780,188.930 227.600,188.600 227.600 C 188.270 227.600,188.000 227.780,188.000 228.000 M152.400 228.738 C 152.400 229.204,153.766 230.400,154.298 230.400 C 154.538 230.400,154.814 230.625,154.912 230.900 C 155.010 231.175,155.227 231.274,155.393 231.119 C 155.741 230.795,154.668 229.600,154.029 229.600 C 153.793 229.600,153.600 229.330,153.600 229.000 C 153.600 228.670,153.330 228.400,153.000 228.400 C 152.670 228.400,152.400 228.552,152.400 228.738 M158.800 233.000 C 159.074 233.330,159.636 233.600,160.049 233.600 C 160.462 233.600,160.800 233.780,160.800 234.000 C 160.800 234.220,161.160 234.400,161.600 234.400 C 162.040 234.400,162.400 234.220,162.400 234.000 C 162.400 233.780,162.034 233.600,161.587 233.600 C 161.141 233.600,160.671 233.330,160.545 233.000 C 160.418 232.670,159.862 232.400,159.308 232.400 C 158.459 232.400,158.380 232.494,158.800 233.000 M162.800 234.757 C 162.800 235.224,163.968 235.667,164.436 235.378 C 165.141 234.942,164.788 234.400,163.800 234.400 C 163.250 234.400,162.800 234.561,162.800 234.757 M165.784 235.975 C 166.059 236.419,167.600 236.369,167.600 235.915 C 167.600 235.742,167.139 235.600,166.576 235.600 C 166.013 235.600,165.657 235.769,165.784 235.975 M169.600 236.792 C 169.600 237.008,170.095 237.289,170.700 237.417 C 171.305 237.544,172.113 237.817,172.495 238.024 C 172.877 238.231,173.402 238.400,173.663 238.400 C 173.924 238.400,174.421 238.644,174.769 238.943 C 175.508 239.578,178.898 240.482,178.573 239.957 C 178.452 239.760,178.003 239.600,177.576 239.600 C 177.149 239.600,176.800 239.330,176.800 239.000 C 176.800 238.600,176.400 238.400,175.600 238.400 C 174.940 238.400,174.400 238.220,174.400 238.000 C 174.400 237.780,173.950 237.600,173.400 237.600 C 172.778 237.600,172.400 237.373,172.400 237.000 C 172.400 236.581,171.978 236.400,171.000 236.400 C 170.230 236.400,169.600 236.577,169.600 236.792 M215.600 239.153 C 215.600 239.593,215.780 240.064,216.000 240.200 C 216.220 240.336,216.400 240.087,216.400 239.647 C 216.400 239.207,216.220 238.736,216.000 238.600 C 215.780 238.464,215.600 238.713,215.600 239.153 M196.400 244.000 C 196.400 248.308,196.472 248.838,197.000 248.400 C 197.458 248.020,197.600 246.981,197.600 244.000 C 197.600 241.019,197.458 239.980,197.000 239.600 C 196.472 239.162,196.400 239.692,196.400 244.000 M180.056 242.017 C 181.460 244.711,180.334 247.928,177.762 248.574 C 177.233 248.707,176.800 248.992,176.800 249.208 C 176.800 249.423,176.296 249.600,175.680 249.600 C 175.064 249.600,174.358 249.802,174.112 250.048 C 173.329 250.831,161.824 249.881,160.899 248.957 C 160.593 248.650,159.916 248.400,159.395 248.400 C 158.874 248.400,158.336 248.220,158.200 248.000 C 158.064 247.780,157.416 247.600,156.759 247.600 C 156.040 247.600,155.136 247.202,154.487 246.600 C 152.522 244.778,148.400 246.106,148.400 248.561 C 148.400 248.825,148.184 249.256,147.920 249.520 C 147.547 249.893,147.547 250.107,147.920 250.480 C 148.293 250.853,148.400 250.818,148.400 250.323 C 148.400 249.972,148.670 249.582,149.000 249.455 C 149.330 249.329,149.600 248.942,149.600 248.596 C 149.600 247.428,151.055 246.277,152.176 246.558 C 152.739 246.700,153.200 246.992,153.200 247.208 C 153.200 247.423,153.650 247.600,154.200 247.600 C 154.750 247.600,155.200 247.780,155.200 248.000 C 155.200 248.220,155.836 248.400,156.613 248.400 C 157.499 248.400,158.111 248.623,158.255 249.000 C 158.385 249.338,158.981 249.600,159.619 249.600 C 160.243 249.600,160.864 249.780,161.000 250.000 C 161.136 250.220,162.052 250.400,163.036 250.400 C 164.257 250.400,164.898 250.590,165.055 251.000 C 165.366 251.810,173.913 251.891,174.222 251.086 C 174.331 250.804,174.910 250.536,175.510 250.490 C 179.844 250.163,184.079 243.619,181.053 241.926 C 180.694 241.725,180.400 241.299,180.400 240.980 C 180.400 240.661,180.133 240.400,179.806 240.400 C 179.323 240.400,179.369 240.700,180.056 242.017 M199.600 242.182 C 199.600 243.473,199.789 244.050,200.851 246.000 C 201.031 246.330,201.469 247.177,201.826 247.882 C 202.182 248.586,202.727 249.374,203.037 249.631 C 203.347 249.888,203.600 250.359,203.600 250.678 C 203.600 251.355,204.553 252.400,205.171 252.400 C 205.407 252.400,205.600 252.684,205.600 253.031 C 205.600 253.868,210.330 258.400,211.203 258.400 C 211.421 258.400,211.600 258.575,211.600 258.790 C 211.600 259.483,214.040 260.520,214.526 260.034 C 214.838 259.722,214.656 259.600,213.880 259.600 C 213.187 259.600,212.800 259.385,212.800 259.000 C 212.800 258.670,212.560 258.400,212.268 258.400 C 211.975 258.400,211.494 257.950,211.200 257.400 C 210.906 256.850,210.425 256.400,210.132 256.400 C 209.840 256.400,209.600 256.220,209.600 256.000 C 209.600 255.780,209.336 255.600,209.014 255.600 C 208.692 255.600,208.228 255.226,207.984 254.770 C 207.739 254.313,206.833 253.233,205.970 252.370 C 205.106 251.506,204.400 250.620,204.400 250.400 C 204.400 250.180,204.220 250.000,204.000 250.000 C 203.780 250.000,203.600 249.593,203.600 249.096 C 203.600 248.599,203.150 247.707,202.600 247.113 C 202.050 246.520,201.600 245.686,201.600 245.260 C 201.600 244.834,201.330 244.382,201.000 244.255 C 200.626 244.112,200.400 243.502,200.400 242.636 C 200.400 241.872,200.220 241.136,200.000 241.000 C 199.762 240.853,199.600 241.331,199.600 242.182 M216.400 241.403 C 216.400 242.184,221.821 247.600,222.603 247.600 C 223.735 247.600,222.059 245.644,220.900 245.613 C 220.625 245.606,220.400 245.407,220.400 245.171 C 220.400 244.936,220.143 244.486,219.829 244.171 C 219.514 243.857,219.064 243.600,218.829 243.600 C 218.593 243.600,218.394 243.375,218.387 243.100 C 218.356 241.936,216.400 240.266,216.400 241.403 M247.600 245.978 C 247.600 246.210,247.352 246.400,247.049 246.400 C 246.746 246.400,246.274 246.670,246.000 247.000 C 245.726 247.330,245.085 247.600,244.575 247.600 C 244.065 247.600,243.536 247.780,243.400 248.000 C 243.253 248.238,243.729 248.400,244.576 248.400 C 245.359 248.400,246.000 248.220,246.000 248.000 C 246.000 247.780,246.463 247.600,247.029 247.600 C 247.594 247.600,248.337 247.320,248.679 246.978 C 249.021 246.636,249.720 246.411,250.232 246.478 C 250.744 246.545,251.216 246.420,251.282 246.200 C 251.347 245.980,250.545 245.745,249.500 245.678 C 248.357 245.605,247.600 245.724,247.600 245.978 M251.600 247.824 C 251.600 248.404,251.773 248.740,252.000 248.600 C 252.220 248.464,252.400 248.003,252.400 247.576 C 252.400 247.149,252.220 246.800,252.000 246.800 C 251.780 246.800,251.600 247.261,251.600 247.824 M223.800 248.000 C 223.936 248.220,224.285 248.400,224.575 248.400 C 224.865 248.400,225.326 248.670,225.600 249.000 C 225.874 249.330,226.616 249.600,227.249 249.600 C 227.882 249.600,228.400 249.780,228.400 250.000 C 228.400 250.248,230.533 250.400,234.000 250.400 C 237.467 250.400,239.600 250.248,239.600 250.000 C 239.600 249.780,240.320 249.600,241.200 249.600 C 242.356 249.600,242.800 249.433,242.800 249.000 C 242.800 248.225,241.343 248.226,239.854 249.002 C 238.211 249.859,229.000 249.857,228.143 249.000 C 227.813 248.670,227.016 248.400,226.371 248.400 C 225.727 248.400,225.200 248.220,225.200 248.000 C 225.200 247.780,224.829 247.600,224.376 247.600 C 223.923 247.600,223.664 247.780,223.800 248.000 M252.400 250.600 C 252.400 251.222,252.627 251.600,253.000 251.600 C 253.330 251.600,253.600 251.870,253.600 252.200 C 253.600 252.530,253.780 252.800,254.000 252.800 C 254.220 252.800,254.400 253.185,254.400 253.656 C 254.400 254.127,254.656 254.712,254.968 254.956 C 255.894 255.680,256.076 258.400,255.199 258.400 C 254.807 258.400,254.382 258.670,254.255 259.000 C 254.129 259.330,253.749 259.600,253.413 259.600 C 253.076 259.600,252.800 259.780,252.800 260.000 C 252.800 260.630,254.000 260.467,254.254 259.802 C 254.381 259.474,254.621 259.289,254.788 259.393 C 256.579 260.500,256.629 254.284,254.841 252.800 C 254.708 252.690,254.288 251.925,253.906 251.100 C 253.110 249.377,252.400 249.141,252.400 250.600 M195.708 251.600 C 195.480 252.150,195.388 252.758,195.502 252.951 C 195.816 253.480,196.478 252.077,196.288 251.287 C 196.154 250.734,196.041 250.795,195.708 251.600 M146.308 253.300 C 145.986 253.795,145.620 254.650,145.494 255.200 C 145.368 255.750,145.139 256.605,144.986 257.100 C 144.485 258.716,145.401 258.045,146.210 256.204 C 146.645 255.216,147.135 254.406,147.300 254.404 C 147.465 254.402,147.600 253.950,147.600 253.400 C 147.600 252.158,147.075 252.118,146.308 253.300 M194.400 253.800 C 194.400 254.130,194.220 254.400,194.000 254.400 C 193.780 254.400,193.600 254.670,193.600 255.000 C 193.600 255.330,193.330 255.600,193.000 255.600 C 192.670 255.600,192.400 255.853,192.400 256.163 C 192.400 257.052,194.009 256.428,194.406 255.384 C 194.596 254.886,194.945 254.358,195.182 254.211 C 195.419 254.065,195.509 253.777,195.383 253.572 C 195.024 252.991,194.400 253.135,194.400 253.800 M191.600 257.800 C 191.600 258.130,191.330 258.400,191.000 258.400 C 190.670 258.400,190.400 258.567,190.400 258.771 C 190.400 259.250,188.097 260.400,187.139 260.400 C 186.732 260.400,186.400 260.670,186.400 261.000 C 186.400 261.373,186.022 261.600,185.400 261.600 C 184.850 261.600,184.400 261.780,184.400 262.000 C 184.400 262.220,183.950 262.400,183.400 262.400 C 182.778 262.400,182.400 262.627,182.400 263.000 C 182.400 263.330,182.657 263.600,182.971 263.600 C 183.286 263.600,183.813 263.330,184.143 263.000 C 184.473 262.670,184.875 262.400,185.037 262.400 C 185.654 262.400,188.400 261.031,188.400 260.723 C 188.400 260.545,188.725 260.400,189.122 260.400 C 189.518 260.400,190.418 259.806,191.122 259.081 C 192.446 257.714,192.686 257.200,192.000 257.200 C 191.780 257.200,191.600 257.470,191.600 257.800 M145.600 258.754 C 145.600 259.237,147.428 260.400,148.186 260.400 C 148.524 260.400,148.800 260.220,148.800 260.000 C 148.800 259.780,148.434 259.600,147.987 259.600 C 147.541 259.600,147.071 259.330,146.945 259.000 C 146.699 258.360,145.600 258.159,145.600 258.754 M149.600 261.000 C 149.874 261.330,150.348 261.600,150.654 261.600 C 151.215 261.600,151.562 261.745,153.862 262.943 C 155.443 263.767,156.800 263.793,156.800 263.000 C 156.800 262.567,156.356 262.400,155.200 262.400 C 154.320 262.400,153.600 262.220,153.600 262.000 C 153.600 261.780,153.150 261.600,152.600 261.600 C 151.978 261.600,151.600 261.373,151.600 261.000 C 151.600 260.595,151.195 260.400,150.351 260.400 C 149.286 260.400,149.175 260.488,149.600 261.000 M215.698 260.900 C 215.789 261.175,216.254 261.458,216.731 261.528 C 217.209 261.598,217.600 261.823,217.600 262.028 C 217.600 262.233,217.938 262.400,218.351 262.400 C 218.764 262.400,219.326 262.670,219.600 263.000 C 220.210 263.735,222.138 263.819,221.902 263.100 C 221.812 262.825,221.257 262.543,220.669 262.473 C 220.081 262.404,219.600 262.179,219.600 261.973 C 219.600 261.768,219.150 261.600,218.600 261.600 C 217.978 261.600,217.600 261.373,217.600 261.000 C 217.600 260.622,217.219 260.400,216.567 260.400 C 215.919 260.400,215.595 260.587,215.698 260.900 M249.600 260.813 C 249.600 261.563,250.851 261.721,251.517 261.055 C 252.123 260.448,252.076 260.400,250.886 260.400 C 250.179 260.400,249.600 260.586,249.600 260.813 M247.400 262.000 C 247.264 262.220,246.743 262.400,246.243 262.400 C 245.701 262.400,245.333 262.643,245.333 263.000 C 245.333 263.352,245.698 263.600,246.218 263.600 C 246.704 263.600,247.326 263.330,247.600 263.000 C 247.874 262.670,248.335 262.400,248.625 262.400 C 248.915 262.400,249.264 262.220,249.400 262.000 C 249.540 261.774,249.212 261.600,248.647 261.600 C 248.097 261.600,247.536 261.780,247.400 262.000 M158.201 264.002 C 158.338 264.224,159.257 264.374,160.243 264.337 C 161.352 264.295,161.838 264.144,161.518 263.941 C 160.763 263.462,157.900 263.515,158.201 264.002 M178.400 264.000 C 177.953 264.289,178.176 264.389,179.276 264.394 C 180.088 264.397,180.864 264.220,181.000 264.000 C 181.319 263.484,179.198 263.484,178.400 264.000 M223.200 264.000 C 223.998 264.516,226.119 264.516,225.800 264.000 C 225.664 263.780,224.888 263.603,224.076 263.606 C 222.976 263.611,222.753 263.711,223.200 264.000 M240.800 264.000 C 240.800 264.220,241.419 264.400,242.176 264.400 C 242.933 264.400,243.664 264.220,243.800 264.000 C 243.949 263.758,243.404 263.600,242.424 263.600 C 241.531 263.600,240.800 263.780,240.800 264.000 M232.705 264.683 C 233.202 264.779,233.922 264.775,234.305 264.675 C 234.687 264.575,234.280 264.496,233.400 264.501 C 232.520 264.505,232.207 264.587,232.705 264.683 " stroke="none" fill="#31a07a" fill-rule="evenodd"></path><path id="path2" d="M165.808 197.125 C 165.687 197.246,164.736 197.475,163.694 197.634 C 153.866 199.135,146.398 209.935,149.169 218.640 C 149.372 219.278,149.648 220.464,149.782 221.275 C 150.426 225.159,154.509 229.117,161.000 232.150 C 162.320 232.767,163.689 233.420,164.041 233.602 C 164.394 233.784,165.521 234.059,166.546 234.213 C 167.571 234.367,168.508 234.652,168.629 234.846 C 168.749 235.041,169.377 235.200,170.024 235.200 C 170.671 235.200,171.200 235.380,171.200 235.600 C 171.200 235.820,171.616 236.000,172.124 236.000 C 172.631 236.000,173.396 236.264,173.824 236.587 C 174.251 236.910,174.851 237.180,175.158 237.187 C 176.950 237.228,181.545 240.049,182.357 241.606 C 184.430 245.584,181.364 251.200,177.120 251.200 C 176.812 251.200,176.359 251.401,176.113 251.647 C 175.527 252.233,163.949 252.215,162.849 251.626 C 162.411 251.392,161.636 251.201,161.126 251.202 C 159.365 251.206,152.310 248.413,151.729 247.483 C 151.537 247.175,150.000 249.847,150.000 250.489 C 150.000 250.666,149.351 252.158,148.558 253.807 C 146.856 257.346,146.887 257.489,149.660 258.851 C 154.299 261.129,158.543 262.434,161.000 262.338 C 161.660 262.312,163.190 262.492,164.400 262.737 C 174.182 264.721,187.115 261.289,191.694 255.496 C 194.343 252.144,195.000 249.898,195.000 244.200 C 195.000 236.239,192.725 232.145,186.555 229.000 C 185.260 228.340,184.056 227.575,183.880 227.300 C 183.704 227.025,183.155 226.800,182.660 226.800 C 182.165 226.800,181.589 226.648,181.380 226.463 C 181.171 226.278,179.783 225.807,178.295 225.418 C 176.808 225.028,175.492 224.549,175.372 224.354 C 175.251 224.159,174.749 224.000,174.256 224.000 C 173.763 224.000,173.189 223.854,172.980 223.675 C 172.771 223.497,171.275 222.930,169.656 222.416 C 162.563 220.164,159.699 216.111,162.005 211.589 C 164.659 206.389,177.663 206.100,187.300 211.028 C 188.345 211.563,189.286 212.000,189.392 212.000 C 189.626 212.000,194.000 203.156,194.000 202.682 C 194.000 202.103,193.047 201.352,191.390 200.626 C 190.516 200.242,189.322 199.674,188.738 199.364 C 188.154 199.054,187.335 198.800,186.918 198.800 C 186.501 198.800,185.975 198.615,185.748 198.388 C 184.881 197.521,166.572 196.361,165.808 197.125 M229.400 197.270 C 222.695 197.723,216.668 199.667,212.879 202.597 C 207.349 206.874,201.600 214.702,201.600 217.954 C 201.600 218.394,201.420 218.864,201.200 219.000 C 200.980 219.136,200.800 219.856,200.800 220.600 C 200.800 221.344,200.620 222.064,200.400 222.200 C 199.896 222.511,199.856 236.887,200.358 237.420 C 200.555 237.629,200.903 238.610,201.133 239.600 C 202.098 243.770,202.416 244.594,204.262 247.719 C 206.400 251.339,211.265 256.482,213.825 257.829 C 214.691 258.285,216.293 259.157,217.384 259.768 C 219.587 261.001,223.453 262.256,225.600 262.437 C 228.175 262.653,240.181 262.552,241.742 262.301 C 244.619 261.838,247.398 261.053,248.031 260.526 C 248.379 260.237,248.919 259.987,249.231 259.971 C 249.544 259.955,250.340 259.597,251.000 259.177 C 251.660 258.756,252.605 258.234,253.100 258.016 C 254.423 257.434,254.236 256.257,252.173 252.196 C 249.861 247.647,249.687 247.463,248.399 248.196 C 246.076 249.520,244.800 249.971,241.000 250.809 C 239.900 251.052,238.447 251.419,237.772 251.625 C 228.549 254.437,216.207 247.015,213.138 236.812 C 210.069 226.610,214.689 214.366,223.000 210.672 C 223.880 210.281,224.913 209.790,225.295 209.581 C 225.677 209.371,226.497 209.200,227.118 209.200 C 227.739 209.200,228.596 208.936,229.024 208.613 C 230.107 207.793,237.199 207.772,238.769 208.584 C 239.390 208.905,240.001 209.065,240.127 208.940 C 240.453 208.614,244.625 209.898,247.094 211.084 C 249.640 212.306,249.947 212.204,251.140 209.741 C 251.657 208.673,252.239 207.530,252.434 207.200 C 254.270 204.088,254.418 202.350,252.900 201.716 C 252.295 201.463,251.350 200.985,250.800 200.653 C 245.680 197.566,239.492 196.588,229.400 197.270 " stroke="none" fill="#fafafa" fill-rule="evenodd"></path><path id="path3" d="M170.616 196.264 C 169.745 196.578,168.992 196.875,168.942 196.925 C 168.892 196.975,170.685 197.030,172.926 197.047 C 176.613 197.075,176.801 197.043,174.900 196.709 C 173.745 196.505,172.800 196.173,172.800 195.969 C 172.800 195.518,172.618 195.543,170.616 196.264 M231.800 196.400 C 231.140 196.568,228.856 196.727,226.724 196.753 C 224.592 196.779,222.736 196.980,222.600 197.200 C 222.464 197.420,221.935 197.600,221.425 197.600 C 220.915 197.600,220.274 197.870,220.000 198.200 C 219.726 198.530,219.164 198.800,218.751 198.800 C 218.338 198.800,218.000 198.980,218.000 199.200 C 218.000 199.420,217.662 199.600,217.249 199.600 C 216.836 199.600,216.274 199.870,216.000 200.200 C 215.726 200.530,215.225 200.800,214.887 200.800 C 213.608 200.800,205.600 207.705,205.600 208.809 C 205.600 209.024,205.465 209.202,205.300 209.205 C 205.135 209.207,204.643 209.972,204.206 210.905 C 203.769 211.837,203.315 212.690,203.197 212.800 C 202.619 213.337,201.600 215.242,201.600 215.786 C 201.600 216.124,201.420 216.400,201.200 216.400 C 200.980 216.400,200.800 217.041,200.800 217.824 C 200.800 218.671,200.962 219.147,201.200 219.000 C 201.420 218.864,201.600 218.394,201.600 217.954 C 201.600 215.552,206.283 208.301,209.837 205.200 C 213.248 202.224,212.993 202.399,216.600 200.567 C 221.916 197.868,225.209 197.186,233.210 197.125 L 239.400 197.078 236.600 196.564 C 233.438 195.983,233.440 195.983,231.800 196.400 M163.700 196.721 C 162.545 196.787,161.600 197.012,161.600 197.221 C 161.600 197.429,161.345 197.600,161.032 197.600 C 160.476 197.600,157.995 198.778,157.600 199.229 C 157.490 199.355,157.130 199.587,156.800 199.745 C 154.520 200.834,152.800 202.260,152.800 203.062 C 152.800 203.358,152.530 203.600,152.200 203.600 C 151.870 203.600,151.600 203.788,151.600 204.017 C 151.600 204.247,151.150 204.920,150.600 205.513 C 150.050 206.107,149.600 206.894,149.600 207.263 C 149.600 207.631,149.407 207.998,149.170 208.077 C 148.926 208.158,148.803 208.906,148.885 209.810 C 149.029 211.391,149.031 211.393,149.337 210.200 C 150.911 204.061,157.103 198.641,163.694 197.634 C 166.924 197.141,166.928 196.535,163.700 196.721 M181.000 196.809 C 178.366 197.048,178.923 197.276,183.384 197.782 C 184.475 197.906,185.546 198.186,185.764 198.404 C 186.460 199.100,187.790 198.911,187.200 198.200 C 186.926 197.870,186.184 197.600,185.551 197.600 C 184.918 197.600,184.400 197.439,184.400 197.243 C 184.400 196.679,183.581 196.575,181.000 196.809 M241.600 196.810 L 239.400 197.031 241.000 197.325 C 244.004 197.878,245.800 198.293,246.555 198.611 C 247.113 198.845,247.261 198.781,247.124 198.364 C 247.022 198.054,246.421 197.740,245.788 197.666 C 245.155 197.592,244.449 197.319,244.219 197.061 C 243.945 196.752,243.041 196.666,241.600 196.810 M188.624 199.387 C 189.051 199.710,189.597 199.980,189.839 199.987 C 191.023 200.022,194.000 201.949,194.000 202.682 C 194.000 203.222,189.609 212.000,189.339 212.000 C 189.204 212.000,188.477 211.619,187.723 211.152 C 186.969 210.686,185.777 210.158,185.076 209.979 C 184.374 209.800,183.350 209.521,182.800 209.358 C 181.900 209.091,181.855 209.128,182.349 209.731 C 182.651 210.099,183.315 210.400,183.825 210.400 C 184.335 210.400,184.864 210.580,185.000 210.800 C 185.136 211.020,185.777 211.200,186.424 211.200 C 187.071 211.200,187.600 211.368,187.600 211.573 C 187.600 212.243,189.273 212.496,190.248 211.974 C 190.891 211.630,191.200 211.113,191.200 210.381 C 191.200 209.785,191.470 209.074,191.800 208.800 C 192.130 208.526,192.400 207.964,192.400 207.551 C 192.400 207.138,192.580 206.800,192.800 206.800 C 193.020 206.800,193.200 206.459,193.200 206.043 C 193.200 205.626,193.470 205.182,193.800 205.055 C 194.130 204.929,194.400 204.384,194.400 203.846 C 194.400 203.307,194.605 202.798,194.854 202.715 C 195.626 202.458,194.308 200.800,193.332 200.800 C 192.851 200.800,192.187 200.530,191.857 200.200 C 191.527 199.870,190.884 199.600,190.429 199.600 C 189.973 199.600,189.600 199.420,189.600 199.200 C 189.600 198.980,189.206 198.800,188.724 198.800 C 187.867 198.800,187.865 198.813,188.624 199.387 M248.224 199.387 C 248.651 199.710,249.235 199.980,249.521 199.987 C 249.808 199.994,250.705 200.450,251.514 201.000 C 252.323 201.550,253.214 202.000,253.493 202.000 C 254.466 202.000,253.920 204.681,252.434 207.200 C 252.239 207.530,251.657 208.673,251.140 209.741 C 249.947 212.204,249.640 212.306,247.094 211.084 C 244.572 209.873,240.450 208.617,240.111 208.956 C 239.977 209.090,240.145 209.200,240.484 209.200 C 240.824 209.200,241.326 209.470,241.600 209.800 C 241.874 210.130,242.616 210.400,243.249 210.400 C 243.882 210.400,244.400 210.580,244.400 210.800 C 244.400 211.020,244.835 211.200,245.368 211.200 C 246.335 211.200,248.778 212.296,249.250 212.943 C 249.804 213.702,251.200 212.757,251.200 211.622 C 251.200 211.004,251.470 210.274,251.800 210.000 C 252.130 209.726,252.413 209.209,252.429 208.851 C 252.445 208.493,252.803 207.660,253.225 207.000 C 253.646 206.340,254.096 205.530,254.225 205.200 C 254.353 204.870,254.625 204.287,254.829 203.905 C 255.415 202.808,255.266 202.075,254.400 201.800 C 253.960 201.660,253.600 201.378,253.600 201.173 C 253.600 200.968,253.144 200.800,252.587 200.800 C 252.031 200.800,251.471 200.530,251.345 200.200 C 251.218 199.870,250.684 199.600,250.157 199.600 C 249.631 199.600,249.200 199.420,249.200 199.200 C 249.200 198.980,248.806 198.800,248.324 198.800 C 247.467 198.800,247.465 198.813,248.224 199.387 M169.200 207.578 C 168.870 207.803,168.128 207.991,167.550 207.994 C 165.786 208.004,162.860 209.915,161.987 211.626 C 159.699 216.109,162.587 220.172,169.656 222.416 C 171.275 222.930,172.771 223.497,172.980 223.675 C 173.189 223.854,173.763 224.000,174.256 224.000 C 174.749 224.000,175.251 224.159,175.372 224.354 C 175.492 224.549,176.808 225.028,178.295 225.418 C 179.783 225.807,181.171 226.278,181.380 226.463 C 181.589 226.648,182.118 226.800,182.556 226.800 C 183.631 226.800,182.199 225.633,181.100 225.613 C 180.715 225.606,180.400 225.420,180.400 225.200 C 180.400 224.980,179.612 224.800,178.649 224.800 C 177.580 224.800,176.704 224.566,176.400 224.200 C 176.126 223.870,175.384 223.600,174.751 223.600 C 174.118 223.600,173.600 223.420,173.600 223.200 C 173.600 222.980,173.255 222.800,172.832 222.800 C 172.410 222.800,171.465 222.500,170.732 222.132 C 168.232 220.879,168.010 220.800,167.005 220.800 C 166.452 220.800,166.000 220.661,166.000 220.491 C 166.000 220.321,165.370 219.843,164.600 219.428 C 163.830 219.013,163.200 218.432,163.200 218.137 C 163.200 217.842,163.040 217.600,162.845 217.600 C 162.303 217.600,161.913 214.897,162.205 213.168 C 162.489 211.491,164.473 209.200,165.643 209.200 C 166.023 209.200,166.405 208.986,166.492 208.725 C 166.704 208.089,178.910 208.129,179.122 208.766 C 179.202 209.005,179.837 209.189,180.533 209.175 C 181.796 209.149,181.797 209.148,180.800 208.716 C 178.529 207.731,170.175 206.911,169.200 207.578 M229.024 208.613 C 228.277 209.177,228.288 209.200,229.300 209.200 C 229.879 209.200,230.464 209.020,230.600 208.800 C 230.736 208.580,232.266 208.400,234.000 208.400 C 235.734 208.400,237.264 208.580,237.400 208.800 C 237.536 209.020,238.132 209.194,238.724 209.186 L 239.800 209.172 238.800 208.600 C 237.387 207.792,230.096 207.802,229.024 208.613 M225.200 209.605 C 224.870 209.801,223.880 210.282,223.000 210.673 C 219.486 212.233,215.822 216.182,214.257 220.095 C 213.023 223.180,212.911 223.938,213.800 223.200 C 214.130 222.926,214.400 222.184,214.400 221.551 C 214.400 220.918,214.580 220.400,214.800 220.400 C 215.020 220.400,215.200 219.972,215.200 219.449 C 215.200 218.926,215.470 218.274,215.800 218.000 C 216.130 217.726,216.400 217.368,216.400 217.205 C 216.400 216.754,220.674 212.400,221.116 212.400 C 221.329 212.400,221.726 212.130,222.000 211.800 C 222.274 211.470,222.926 211.200,223.449 211.200 C 223.972 211.200,224.400 211.020,224.400 210.800 C 224.400 210.580,224.828 210.400,225.351 210.400 C 225.874 210.400,226.526 210.130,226.800 209.800 C 227.379 209.102,226.271 208.966,225.200 209.605 M148.832 220.100 C 148.814 221.388,148.976 222.400,149.200 222.400 C 149.420 222.400,149.600 222.766,149.600 223.213 C 149.600 223.659,149.870 224.129,150.200 224.255 C 150.530 224.382,150.800 224.712,150.800 224.989 C 150.800 225.800,155.288 230.400,156.079 230.400 C 156.476 230.400,156.800 230.545,156.800 230.723 C 156.800 231.119,159.628 232.400,160.501 232.400 C 160.849 232.400,161.202 232.607,161.287 232.860 C 161.371 233.113,161.701 233.229,162.020 233.118 C 162.375 232.995,161.824 232.555,160.600 231.985 C 154.589 229.187,150.411 225.051,149.781 221.275 C 149.259 218.147,148.865 217.660,148.832 220.100 M200.114 220.831 C 198.866 223.315,198.959 237.770,200.230 238.825 C 200.581 239.116,200.800 240.048,200.800 241.249 C 200.800 242.322,200.980 243.200,201.200 243.200 C 201.420 243.200,201.600 243.455,201.600 243.768 C 201.600 244.401,202.749 246.687,203.463 247.473 C 203.717 247.753,204.166 248.526,204.460 249.191 C 204.754 249.856,205.131 250.400,205.298 250.400 C 205.464 250.400,205.600 250.630,205.600 250.911 C 205.600 251.192,205.915 251.694,206.300 252.027 C 206.685 252.360,207.450 253.168,208.000 253.822 C 208.550 254.477,209.855 255.626,210.900 256.374 C 211.945 257.123,212.800 257.885,212.800 258.068 C 212.800 258.251,213.070 258.400,213.400 258.400 C 213.730 258.400,214.000 258.580,214.000 258.800 C 214.000 259.020,214.255 259.200,214.568 259.200 C 215.215 259.200,217.674 260.429,218.048 260.939 C 218.184 261.126,218.609 261.216,218.992 261.139 C 219.659 261.006,218.958 260.558,213.825 257.835 C 211.256 256.474,206.396 251.332,204.262 247.719 C 202.416 244.594,202.098 243.770,201.133 239.600 C 200.903 238.610,200.555 237.629,200.358 237.420 C 199.830 236.859,199.900 222.660,200.434 222.126 C 200.672 221.888,200.807 221.281,200.734 220.777 L 200.600 219.863 200.114 220.831 M212.467 225.807 C 210.469 231.828,214.166 242.595,219.779 247.102 C 224.172 250.629,233.416 252.954,237.772 251.625 C 238.447 251.419,239.900 251.052,241.000 250.809 C 244.800 249.971,246.076 249.520,248.399 248.196 C 249.687 247.463,249.861 247.647,252.173 252.196 C 254.236 256.257,254.423 257.434,253.100 258.016 C 252.605 258.234,251.660 258.756,251.000 259.177 C 250.340 259.597,249.507 259.955,249.149 259.971 C 248.225 260.012,247.260 261.200,248.151 261.200 C 248.508 261.200,248.800 261.020,248.800 260.800 C 248.800 260.580,249.228 260.400,249.751 260.400 C 250.274 260.400,250.926 260.130,251.200 259.800 C 251.474 259.470,252.036 259.200,252.449 259.200 C 252.862 259.200,253.200 259.040,253.200 258.843 C 253.200 258.647,253.650 258.374,254.200 258.236 C 255.246 257.973,255.454 257.266,254.829 256.095 C 254.625 255.713,254.353 255.130,254.225 254.800 C 254.096 254.470,253.646 253.660,253.225 253.000 C 252.803 252.340,252.445 251.507,252.429 251.149 C 252.413 250.791,252.140 250.283,251.823 250.019 C 251.506 249.756,251.191 248.970,251.123 248.273 C 251.002 247.027,249.827 246.268,249.248 247.061 C 248.737 247.759,246.294 248.800,245.168 248.800 C 244.525 248.800,244.000 248.980,244.000 249.200 C 244.000 249.420,243.595 249.606,243.100 249.614 C 242.605 249.622,241.750 249.886,241.200 250.200 C 240.650 250.514,239.176 250.778,237.924 250.786 C 236.672 250.794,235.536 250.980,235.400 251.200 C 235.264 251.420,234.533 251.600,233.776 251.600 C 233.019 251.600,232.400 251.420,232.400 251.200 C 232.400 250.980,231.444 250.800,230.276 250.800 C 229.029 250.800,227.833 250.558,227.376 250.213 C 226.949 249.890,226.195 249.620,225.700 249.613 C 225.205 249.606,224.800 249.420,224.800 249.200 C 224.800 248.980,224.351 248.800,223.803 248.800 C 222.740 248.800,221.776 248.092,218.842 245.158 C 216.032 242.349,215.200 241.266,215.200 240.421 C 215.200 239.995,215.020 239.536,214.800 239.400 C 214.580 239.264,214.394 238.758,214.387 238.276 C 214.380 237.794,214.110 237.051,213.787 236.624 C 213.464 236.196,213.200 235.262,213.200 234.547 C 213.200 233.832,213.020 233.136,212.800 233.000 C 212.261 232.667,212.288 227.472,212.831 226.929 C 213.068 226.692,213.203 225.981,213.131 225.349 C 213.004 224.235,212.984 224.249,212.467 225.807 M183.840 227.300 C 183.959 227.575,185.151 228.338,186.490 228.995 C 190.152 230.793,193.388 234.299,194.431 237.600 C 195.184 239.982,195.203 248.475,194.460 250.400 C 192.798 254.704,191.222 256.633,187.273 259.192 C 185.583 260.287,184.523 261.187,184.917 261.192 C 185.311 261.196,186.027 260.833,186.509 260.385 C 186.990 259.936,187.793 259.466,188.292 259.341 C 188.791 259.216,189.200 258.953,189.200 258.757 C 189.200 258.560,189.470 258.400,189.800 258.400 C 190.130 258.400,190.400 258.262,190.400 258.093 C 190.400 257.925,191.300 256.803,192.400 255.600 C 193.500 254.397,194.400 253.131,194.400 252.787 C 194.400 252.442,194.563 251.989,194.763 251.780 C 195.568 250.937,195.989 243.084,195.437 239.200 C 195.035 236.370,194.313 234.789,192.589 232.961 C 191.825 232.151,191.200 231.407,191.200 231.308 C 191.200 230.971,189.402 229.627,188.933 229.613 C 188.677 229.606,188.407 229.465,188.333 229.300 C 188.140 228.865,185.635 227.600,184.968 227.600 C 184.655 227.600,184.400 227.420,184.400 227.200 C 184.400 226.980,184.226 226.800,184.013 226.800 C 183.799 226.800,183.722 227.025,183.840 227.300 M163.200 233.800 C 163.474 234.130,164.111 234.400,164.616 234.400 C 165.120 234.400,165.599 234.598,165.680 234.839 C 165.760 235.080,166.708 235.348,167.786 235.433 C 168.865 235.517,169.930 235.770,170.153 235.993 C 170.377 236.217,171.053 236.400,171.656 236.400 C 172.259 236.400,172.864 236.580,173.000 236.800 C 173.136 237.020,173.552 237.194,173.924 237.187 C 175.023 237.167,173.254 236.000,172.124 236.000 C 171.616 236.000,171.200 235.820,171.200 235.600 C 171.200 235.380,170.671 235.200,170.024 235.200 C 169.377 235.200,168.746 235.037,168.623 234.837 C 168.500 234.638,167.500 234.351,166.400 234.200 C 165.300 234.049,164.300 233.762,164.177 233.563 C 164.054 233.363,163.671 233.200,163.327 233.200 C 162.817 233.200,162.793 233.310,163.200 233.800 M175.200 237.800 C 175.474 238.130,176.025 238.400,176.425 238.400 C 176.825 238.400,177.264 238.580,177.400 238.800 C 177.536 239.020,178.013 239.200,178.460 239.200 C 179.337 239.200,181.600 241.110,181.600 241.850 C 181.600 242.098,181.870 242.526,182.200 242.800 C 183.284 243.699,182.326 247.368,180.642 248.765 C 179.660 249.580,177.086 250.800,176.349 250.800 C 175.974 250.800,175.604 250.988,175.528 251.217 C 175.341 251.778,163.857 251.770,163.670 251.209 C 163.595 250.984,162.843 250.800,161.999 250.800 C 161.155 250.800,159.865 250.500,159.132 250.132 C 156.659 248.893,156.413 248.800,155.597 248.800 C 155.150 248.800,154.071 248.350,153.200 247.800 C 151.321 246.614,150.972 246.573,150.651 247.500 C 150.518 247.885,150.060 248.740,149.634 249.400 C 149.207 250.060,148.845 251.073,148.829 251.651 C 148.813 252.229,148.530 252.926,148.200 253.200 C 147.870 253.474,147.600 254.021,147.600 254.416 C 147.600 254.810,147.437 255.193,147.238 255.267 C 146.901 255.391,146.653 256.744,146.756 257.900 C 146.780 258.175,147.070 258.400,147.400 258.400 C 147.730 258.400,148.000 258.580,148.000 258.800 C 148.000 259.020,148.315 259.206,148.700 259.213 C 149.085 259.220,149.749 259.490,150.176 259.813 C 150.604 260.136,151.279 260.400,151.676 260.400 C 152.074 260.400,152.400 260.580,152.400 260.800 C 152.400 261.020,152.805 261.206,153.300 261.213 C 153.795 261.220,154.549 261.490,154.976 261.813 C 155.404 262.136,156.248 262.400,156.853 262.400 C 157.458 262.400,158.064 262.580,158.200 262.800 C 158.339 263.025,160.054 263.181,162.124 263.156 C 165.575 263.115,165.690 263.087,164.000 262.706 C 163.010 262.483,161.660 262.319,161.000 262.343 C 158.529 262.430,154.291 261.125,149.660 258.851 C 146.887 257.489,146.856 257.346,148.558 253.807 C 149.351 252.158,150.000 250.666,150.000 250.489 C 150.000 249.847,151.537 247.175,151.729 247.483 C 152.310 248.413,159.365 251.206,161.126 251.202 C 161.636 251.201,162.411 251.392,162.849 251.626 C 163.949 252.215,175.527 252.233,176.113 251.647 C 176.359 251.401,176.812 251.200,177.120 251.200 C 184.046 251.200,185.167 241.746,178.615 238.594 C 175.410 237.053,174.381 236.814,175.200 237.800 M181.800 261.814 C 181.140 262.117,179.790 262.385,178.800 262.410 C 175.583 262.493,175.124 263.088,178.152 263.251 C 180.099 263.357,180.959 263.254,181.095 262.900 C 181.200 262.625,181.694 262.400,182.194 262.400 C 182.693 262.400,183.326 262.130,183.600 261.800 C 184.242 261.027,183.508 261.032,181.800 261.814 M220.400 261.800 C 220.674 262.130,221.326 262.400,221.849 262.400 C 222.372 262.400,222.800 262.580,222.800 262.800 C 222.800 263.057,226.600 263.200,233.400 263.200 C 240.200 263.200,244.000 263.057,244.000 262.800 C 244.000 262.580,244.518 262.400,245.151 262.400 C 245.784 262.400,246.526 262.130,246.800 261.800 C 247.408 261.068,246.637 260.978,245.019 261.593 C 241.624 262.884,225.801 263.000,222.287 261.760 C 220.252 261.042,219.779 261.052,220.400 261.800 " stroke="none" fill="#b0b1b7" fill-rule="evenodd"></path><path id="path4" d="M163.800 196.000 C 163.949 196.242,163.404 196.400,162.424 196.400 C 161.247 196.400,160.800 196.565,160.800 197.000 C 160.800 197.657,161.453 197.826,161.667 197.225 C 161.740 197.019,163.780 196.786,166.200 196.708 C 172.405 196.509,173.750 195.629,167.876 195.612 C 165.093 195.604,163.641 195.742,163.800 196.000 M172.800 195.950 C 172.800 196.528,175.066 196.803,179.350 196.746 C 181.578 196.716,182.995 196.613,182.500 196.518 C 182.005 196.422,181.600 196.177,181.600 195.972 C 181.600 195.765,179.647 195.600,177.200 195.600 C 174.780 195.600,172.800 195.758,172.800 195.950 M224.984 196.025 C 224.857 196.231,224.043 196.400,223.176 196.400 C 222.042 196.400,221.600 196.568,221.600 197.000 C 221.600 197.673,222.048 197.780,222.620 197.243 C 222.829 197.046,225.160 196.767,227.800 196.622 C 233.875 196.289,233.721 196.290,239.200 196.551 C 241.730 196.671,243.485 196.673,243.100 196.555 C 242.715 196.438,242.400 196.170,242.400 195.961 C 242.400 195.460,225.295 195.522,224.984 196.025 M184.143 197.000 C 184.473 197.330,184.936 197.600,185.171 197.600 C 185.407 197.600,185.600 197.330,185.600 197.000 C 185.600 196.622,185.219 196.400,184.571 196.400 C 183.657 196.400,183.610 196.467,184.143 197.000 M244.255 197.000 C 244.382 197.330,244.736 197.600,245.043 197.600 C 245.349 197.600,245.600 197.330,245.600 197.000 C 245.600 196.670,245.246 196.400,244.813 196.400 C 244.277 196.400,244.099 196.592,244.255 197.000 M158.800 198.000 C 158.800 198.220,158.451 198.400,158.024 198.400 C 157.171 198.400,156.549 199.095,157.015 199.527 C 157.177 199.677,157.390 199.575,157.488 199.300 C 157.586 199.025,157.887 198.800,158.157 198.800 C 159.025 198.800,160.351 197.628,159.500 197.613 C 159.115 197.606,158.800 197.780,158.800 198.000 M187.200 198.200 C 187.474 198.530,188.126 198.800,188.649 198.800 C 189.172 198.800,189.600 198.980,189.600 199.200 C 189.600 199.420,189.780 199.600,190.000 199.600 C 190.220 199.600,190.400 199.330,190.400 199.000 C 190.400 198.600,190.000 198.400,189.200 198.400 C 188.540 198.400,188.000 198.220,188.000 198.000 C 188.000 197.780,187.708 197.600,187.351 197.600 C 186.820 197.600,186.792 197.709,187.200 198.200 M218.100 198.324 C 216.731 198.977,216.389 199.600,217.400 199.600 C 217.730 199.600,218.000 199.420,218.000 199.200 C 218.000 198.980,218.338 198.800,218.751 198.800 C 219.164 198.800,219.726 198.530,220.000 198.200 C 220.652 197.414,219.905 197.463,218.100 198.324 M247.055 198.200 C 247.182 198.530,247.716 198.800,248.243 198.800 C 248.769 198.800,249.200 198.980,249.200 199.200 C 249.200 199.420,249.470 199.600,249.800 199.600 C 250.890 199.600,250.423 198.785,249.192 198.538 C 248.527 198.405,247.886 198.140,247.768 197.948 C 247.402 197.356,246.812 197.565,247.055 198.200 M154.800 200.000 C 154.800 200.220,154.530 200.400,154.200 200.400 C 153.870 200.400,153.600 200.670,153.600 201.000 C 153.600 201.330,153.407 201.600,153.171 201.600 C 152.936 201.600,152.486 201.857,152.171 202.171 C 151.428 202.915,151.442 203.600,152.200 203.600 C 152.530 203.600,152.800 203.361,152.800 203.070 C 152.800 202.451,154.456 200.800,155.077 200.800 C 155.311 200.800,155.726 200.530,156.000 200.200 C 156.416 199.699,156.358 199.600,155.649 199.600 C 155.182 199.600,154.800 199.780,154.800 200.000 M191.600 199.957 C 191.600 200.375,192.577 200.800,193.536 200.800 C 194.368 200.800,195.531 202.490,194.854 202.715 C 194.236 202.921,194.279 203.868,194.917 204.113 C 195.296 204.258,195.430 203.814,195.417 202.456 C 195.401 200.734,195.321 200.591,194.300 200.473 C 193.695 200.404,193.200 200.179,193.200 199.973 C 193.200 199.768,192.840 199.600,192.400 199.600 C 191.960 199.600,191.600 199.761,191.600 199.957 M214.800 200.000 C 214.800 200.220,214.665 200.379,214.500 200.353 C 213.531 200.200,212.800 200.478,212.800 201.000 C 212.800 201.330,212.596 201.600,212.347 201.600 C 212.097 201.600,211.512 202.038,211.047 202.573 C 210.581 203.108,209.937 203.603,209.616 203.673 C 208.700 203.872,207.496 205.089,207.677 205.631 C 207.785 205.954,208.178 205.787,208.820 205.147 C 210.481 203.493,214.239 200.800,214.887 200.800 C 215.225 200.800,215.726 200.530,216.000 200.200 C 216.416 199.699,216.358 199.600,215.649 199.600 C 215.182 199.600,214.800 199.780,214.800 200.000 M251.298 200.100 C 251.388 200.375,251.943 200.657,252.531 200.727 C 253.119 200.796,253.600 201.009,253.600 201.200 C 253.600 201.390,253.960 201.660,254.400 201.800 C 255.311 202.089,255.421 202.857,254.715 203.987 C 254.448 204.414,254.368 204.902,254.537 205.070 C 254.706 205.239,255.011 205.112,255.216 204.788 C 255.716 203.998,255.701 201.709,255.193 201.396 C 254.970 201.258,254.891 200.977,255.017 200.772 C 255.144 200.568,254.776 200.400,254.200 200.400 C 253.604 200.400,253.259 200.228,253.400 200.000 C 253.536 199.780,253.472 199.600,253.257 199.600 C 253.042 199.600,252.776 199.825,252.665 200.100 C 252.504 200.500,252.457 200.500,252.432 200.100 C 252.414 199.825,252.115 199.600,251.767 199.600 C 251.418 199.600,251.207 199.825,251.298 200.100 M150.526 204.675 C 150.379 205.074,150.070 205.525,149.841 205.678 C 149.611 205.831,149.522 206.055,149.642 206.175 C 149.762 206.296,150.245 205.952,150.715 205.411 C 151.198 204.857,151.401 204.324,151.182 204.189 C 150.969 204.057,150.674 204.276,150.526 204.675 M193.700 205.088 C 193.425 205.186,193.200 205.612,193.200 206.033 C 193.200 206.455,193.020 206.800,192.800 206.800 C 192.580 206.800,192.400 206.974,192.400 207.187 C 192.400 207.401,192.670 207.471,193.000 207.345 C 193.330 207.218,193.600 206.789,193.600 206.391 C 193.600 205.992,193.825 205.586,194.100 205.488 C 194.375 205.390,194.510 205.220,194.400 205.110 C 194.290 205.000,193.975 204.990,193.700 205.088 M253.775 206.020 C 252.853 207.462,252.478 208.400,252.824 208.400 C 253.031 208.400,253.200 208.233,253.200 208.029 C 253.200 207.824,253.484 207.373,253.832 207.025 C 254.180 206.677,254.393 206.178,254.305 205.916 C 254.193 205.580,254.037 205.610,253.775 206.020 M206.293 207.200 C 205.916 207.640,205.746 208.000,205.915 208.000 C 206.084 208.000,206.530 207.640,206.907 207.200 C 207.284 206.760,207.454 206.400,207.285 206.400 C 207.116 206.400,206.670 206.760,206.293 207.200 M148.667 207.067 C 148.520 207.213,148.400 207.944,148.400 208.690 C 148.400 209.493,148.237 209.946,148.000 209.800 C 147.741 209.640,147.600 211.396,147.600 214.776 C 147.600 217.992,147.754 220.000,148.000 220.000 C 148.220 220.000,148.400 220.720,148.400 221.600 C 148.400 222.756,148.567 223.200,149.000 223.200 C 149.673 223.200,149.821 222.540,149.196 222.332 C 148.635 222.145,148.622 208.259,149.183 208.072 C 149.412 207.996,149.600 207.678,149.600 207.367 C 149.600 206.771,149.118 206.616,148.667 207.067 M171.100 208.282 C 171.595 208.378,172.405 208.378,172.900 208.282 C 173.395 208.187,172.990 208.109,172.000 208.109 C 171.010 208.109,170.605 208.187,171.100 208.282 M166.400 208.800 C 166.400 209.020,166.074 209.200,165.676 209.200 C 164.938 209.200,162.400 211.406,162.400 212.047 C 162.400 212.241,162.670 212.400,163.000 212.400 C 163.330 212.400,163.600 212.229,163.600 212.021 C 163.600 211.279,165.505 209.600,166.346 209.600 C 166.838 209.600,167.200 209.346,167.200 209.000 C 167.200 208.670,167.020 208.400,166.800 208.400 C 166.580 208.400,166.400 208.580,166.400 208.800 M178.000 209.000 C 178.000 209.444,178.467 209.600,179.800 209.600 C 180.790 209.600,181.600 209.780,181.600 210.000 C 181.600 210.220,181.892 210.400,182.249 210.400 C 182.780 210.400,182.808 210.291,182.400 209.800 C 182.126 209.470,181.294 209.200,180.551 209.200 C 179.808 209.200,179.200 209.020,179.200 208.800 C 179.200 208.580,178.930 208.400,178.600 208.400 C 178.270 208.400,178.000 208.670,178.000 209.000 M191.695 208.865 C 191.423 209.137,191.200 209.864,191.200 210.480 C 191.200 211.096,191.065 211.606,190.900 211.613 C 189.984 211.652,189.018 212.840,189.602 213.210 C 190.495 213.774,190.805 213.679,190.518 212.931 C 190.315 212.401,190.419 212.322,191.018 212.552 C 191.435 212.712,191.656 212.722,191.509 212.576 C 191.363 212.429,191.520 211.616,191.859 210.768 C 192.556 209.027,192.475 208.085,191.695 208.865 M204.221 209.424 C 203.852 209.987,203.613 210.752,203.688 211.124 C 203.786 211.603,203.997 211.421,204.411 210.500 C 204.732 209.785,205.131 209.200,205.298 209.200 C 205.464 209.200,205.600 209.020,205.600 208.800 C 205.600 208.070,204.901 208.386,204.221 209.424 M230.600 208.800 C 230.464 209.020,229.665 209.200,228.825 209.200 C 227.956 209.200,227.084 209.458,226.800 209.800 C 226.190 210.534,227.160 210.680,227.878 209.962 C 228.464 209.376,240.131 209.393,240.327 209.980 C 240.404 210.211,240.834 210.400,241.282 210.400 C 241.962 210.400,242.015 210.300,241.600 209.800 C 241.298 209.436,240.422 209.200,239.375 209.200 C 238.425 209.200,237.536 209.020,237.400 208.800 C 237.264 208.580,235.734 208.400,234.000 208.400 C 232.266 208.400,230.736 208.580,230.600 208.800 M251.700 210.057 C 251.425 210.333,251.200 211.052,251.200 211.653 C 251.200 212.796,249.600 213.799,249.284 212.853 C 249.201 212.604,248.974 212.400,248.779 212.400 C 248.584 212.400,248.529 212.670,248.655 213.000 C 249.131 214.239,251.600 213.763,251.600 212.433 C 251.600 211.792,251.801 211.200,252.046 211.118 C 252.291 211.036,252.426 210.651,252.346 210.261 C 252.229 209.693,252.101 209.652,251.700 210.057 M183.855 211.000 C 183.987 211.342,184.583 211.600,185.243 211.600 C 185.879 211.600,186.400 211.780,186.400 212.000 C 186.400 212.220,186.863 212.400,187.429 212.400 C 188.343 212.400,188.390 212.333,187.857 211.800 C 187.527 211.470,186.805 211.200,186.252 211.200 C 185.699 211.200,185.136 211.020,185.000 210.800 C 184.600 210.153,183.597 210.328,183.855 211.000 M224.400 210.800 C 224.400 211.020,223.972 211.200,223.449 211.200 C 222.926 211.200,222.274 211.470,222.000 211.800 C 221.585 212.300,221.639 212.400,222.327 212.400 C 222.781 212.400,223.264 212.220,223.400 212.000 C 223.536 211.780,223.997 211.600,224.424 211.600 C 224.851 211.600,225.200 211.330,225.200 211.000 C 225.200 210.670,225.020 210.400,224.800 210.400 C 224.580 210.400,224.400 210.580,224.400 210.800 M242.933 211.000 C 242.933 211.441,243.393 211.600,244.667 211.600 C 245.620 211.600,246.400 211.780,246.400 212.000 C 246.400 212.220,246.794 212.400,247.276 212.400 C 248.133 212.400,248.135 212.387,247.376 211.813 C 246.949 211.490,246.105 211.220,245.500 211.213 C 244.895 211.206,244.400 211.020,244.400 210.800 C 244.400 210.580,244.070 210.400,243.667 210.400 C 243.263 210.400,242.933 210.670,242.933 211.000 M202.517 212.700 C 202.375 213.085,202.088 213.514,201.880 213.654 C 201.673 213.793,201.591 214.153,201.699 214.454 C 201.827 214.812,202.073 214.621,202.412 213.900 C 202.696 213.295,203.080 212.800,203.264 212.800 C 203.449 212.800,203.600 212.620,203.600 212.400 C 203.600 211.730,202.792 211.954,202.517 212.700 M218.507 214.670 C 217.356 215.896,216.524 217.076,216.657 217.293 C 216.791 217.509,217.304 217.217,217.797 216.643 C 218.290 216.069,218.897 215.600,219.147 215.600 C 219.396 215.600,219.600 215.370,219.600 215.088 C 219.600 214.807,219.960 214.317,220.400 214.000 C 221.174 213.442,221.510 212.379,220.900 212.420 C 220.735 212.431,219.658 213.443,218.507 214.670 M162.101 214.600 C 162.105 215.480,162.187 215.793,162.283 215.295 C 162.379 214.798,162.375 214.078,162.275 213.695 C 162.175 213.313,162.096 213.720,162.101 214.600 M200.400 216.824 C 200.400 217.537,200.233 217.944,200.000 217.800 C 199.754 217.648,199.605 218.293,199.613 219.476 C 199.624 221.255,199.670 221.341,200.213 220.624 C 200.536 220.196,200.800 219.071,200.800 218.124 C 200.800 217.176,200.980 216.400,201.200 216.400 C 201.420 216.400,201.600 216.220,201.600 216.000 C 201.600 215.780,201.330 215.600,201.000 215.600 C 200.597 215.600,200.400 216.003,200.400 216.824 M162.400 217.200 C 162.400 217.420,162.580 217.600,162.800 217.600 C 163.020 217.600,163.200 217.827,163.200 218.104 C 163.200 218.381,163.560 218.832,164.000 219.107 C 164.500 219.420,164.800 219.451,164.800 219.191 C 164.800 218.962,164.530 218.671,164.200 218.545 C 163.870 218.418,163.600 217.974,163.600 217.557 C 163.600 217.141,163.330 216.800,163.000 216.800 C 162.670 216.800,162.400 216.980,162.400 217.200 M215.700 218.055 C 215.425 218.333,215.200 218.974,215.200 219.480 C 215.200 219.986,215.020 220.400,214.800 220.400 C 214.580 220.400,214.400 220.640,214.400 220.933 C 214.400 221.227,214.670 221.467,215.000 221.467 C 215.356 221.467,215.600 221.100,215.600 220.567 C 215.600 220.072,215.798 219.601,216.039 219.520 C 216.281 219.440,216.416 218.963,216.339 218.462 C 216.227 217.729,216.102 217.649,215.700 218.055 M165.743 220.200 C 166.073 220.530,166.795 220.800,167.348 220.800 C 167.901 220.800,168.464 220.980,168.600 221.200 C 169.000 221.847,170.003 221.672,169.745 221.000 C 169.615 220.662,169.019 220.400,168.381 220.400 C 167.757 220.400,167.136 220.220,167.000 220.000 C 166.864 219.780,166.391 219.600,165.948 219.600 C 165.232 219.600,165.210 219.667,165.743 220.200 M171.024 222.187 C 171.451 222.510,172.190 222.780,172.667 222.787 C 173.143 222.794,173.614 223.025,173.712 223.300 C 173.810 223.575,174.023 223.677,174.185 223.527 C 174.695 223.054,173.994 222.400,172.976 222.400 C 172.439 222.400,172.000 222.220,172.000 222.000 C 172.000 221.780,171.606 221.600,171.124 221.600 C 170.267 221.600,170.265 221.613,171.024 222.187 M213.700 223.257 C 213.425 223.533,213.200 224.433,213.200 225.256 C 213.200 226.079,213.020 226.864,212.800 227.000 C 212.580 227.136,212.400 228.486,212.400 230.000 C 212.400 231.514,212.580 232.864,212.800 233.000 C 213.020 233.136,213.200 233.832,213.200 234.547 C 213.200 235.262,213.464 236.196,213.787 236.624 C 214.360 237.381,214.375 237.377,214.387 236.500 C 214.394 236.005,214.220 235.600,214.000 235.600 C 213.419 235.600,213.464 224.512,214.046 224.318 C 214.291 224.236,214.426 223.851,214.346 223.461 C 214.229 222.893,214.101 222.852,213.700 223.257 M176.400 224.200 C 176.704 224.566,177.580 224.800,178.649 224.800 C 179.612 224.800,180.400 224.980,180.400 225.200 C 180.400 225.420,180.580 225.600,180.800 225.600 C 181.020 225.600,181.200 225.330,181.200 225.000 C 181.200 224.631,180.825 224.400,180.224 224.400 C 179.687 224.400,179.136 224.220,179.000 224.000 C 178.864 223.780,178.111 223.600,177.327 223.600 C 176.106 223.600,175.973 223.686,176.400 224.200 M149.600 224.613 C 149.600 224.936,149.780 225.200,150.000 225.200 C 150.220 225.200,150.400 225.470,150.400 225.800 C 150.400 226.130,150.670 226.400,151.000 226.400 C 151.373 226.400,151.600 226.778,151.600 227.400 C 151.600 228.147,151.811 228.400,152.434 228.400 C 153.210 228.400,153.182 228.293,152.034 226.842 C 151.355 225.986,150.800 225.105,150.800 224.885 C 150.800 224.665,150.530 224.382,150.200 224.255 C 149.835 224.115,149.600 224.255,149.600 224.613 M198.643 225.433 C 197.931 227.289,198.451 235.200,199.285 235.200 C 199.530 235.200,199.579 234.546,199.412 233.500 C 199.263 232.565,199.140 230.990,199.140 230.000 C 199.140 229.010,199.263 227.435,199.412 226.500 C 199.680 224.824,199.155 224.097,198.643 225.433 M182.576 226.213 C 183.004 226.536,183.574 226.800,183.843 226.800 C 184.113 226.800,184.414 227.025,184.512 227.300 C 184.610 227.575,184.823 227.677,184.985 227.527 C 185.451 227.095,184.829 226.400,183.976 226.400 C 183.549 226.400,183.200 226.220,183.200 226.000 C 183.200 225.780,182.885 225.606,182.500 225.613 C 181.867 225.624,181.874 225.681,182.576 226.213 M186.576 228.213 C 187.004 228.536,187.589 228.800,187.876 228.800 C 188.164 228.800,188.400 228.980,188.400 229.200 C 188.400 229.420,188.580 229.600,188.800 229.600 C 189.020 229.600,189.200 229.330,189.200 229.000 C 189.200 228.670,188.930 228.400,188.600 228.400 C 188.270 228.400,188.000 228.220,188.000 228.000 C 188.000 227.780,187.505 227.606,186.900 227.613 C 185.846 227.625,185.833 227.650,186.576 228.213 M190.300 230.377 C 190.795 230.790,191.200 231.209,191.200 231.308 C 191.200 231.407,191.825 232.151,192.589 232.961 C 194.313 234.789,195.035 236.370,195.437 239.200 C 195.989 243.084,195.568 250.937,194.763 251.780 C 194.203 252.366,194.332 253.088,195.045 253.362 C 195.487 253.532,195.622 253.435,195.476 253.054 C 195.359 252.749,195.519 252.007,195.832 251.404 C 196.520 250.077,196.678 236.581,196.000 237.000 C 195.780 237.136,195.600 236.889,195.600 236.452 C 195.600 236.015,195.330 235.387,195.000 235.057 C 194.670 234.727,194.400 234.343,194.400 234.202 C 194.400 233.819,190.101 229.598,189.726 229.613 C 189.547 229.621,189.805 229.964,190.300 230.377 M155.600 231.000 C 155.600 231.368,155.974 231.600,156.567 231.600 C 157.098 231.600,157.600 231.801,157.682 232.046 C 157.764 232.291,158.184 232.406,158.615 232.302 C 159.266 232.144,159.178 232.027,158.100 231.617 C 157.385 231.344,156.800 230.959,156.800 230.761 C 156.800 230.562,156.530 230.400,156.200 230.400 C 155.870 230.400,155.600 230.670,155.600 231.000 M160.498 232.900 C 160.589 233.175,161.054 233.458,161.531 233.528 C 162.009 233.598,162.400 233.823,162.400 234.028 C 162.400 234.233,162.692 234.400,163.049 234.400 C 163.580 234.400,163.608 234.291,163.200 233.800 C 162.926 233.470,162.364 233.200,161.951 233.200 C 161.538 233.200,161.200 233.020,161.200 232.800 C 161.200 232.580,161.005 232.400,160.767 232.400 C 160.528 232.400,160.407 232.625,160.498 232.900 M164.655 235.000 C 164.500 235.406,164.676 235.600,165.200 235.600 C 165.724 235.600,165.900 235.406,165.745 235.000 C 165.618 234.670,165.373 234.400,165.200 234.400 C 165.027 234.400,164.782 234.670,164.655 235.000 M166.900 235.450 C 167.285 235.565,167.600 235.825,167.600 236.029 C 167.600 236.233,168.266 236.400,169.080 236.400 C 171.064 236.400,170.309 235.745,168.000 235.462 C 167.010 235.341,166.515 235.336,166.900 235.450 M172.400 236.920 C 172.400 237.379,172.725 237.600,173.400 237.600 C 173.950 237.600,174.400 237.780,174.400 238.000 C 174.400 238.220,174.692 238.400,175.049 238.400 C 175.580 238.400,175.608 238.291,175.200 237.800 C 174.926 237.470,174.400 237.200,174.031 237.200 C 173.662 237.200,173.144 236.984,172.880 236.720 C 172.507 236.347,172.400 236.391,172.400 236.920 M214.803 238.394 C 214.328 238.691,214.308 238.868,214.703 239.263 C 214.977 239.537,215.200 240.083,215.200 240.477 C 215.200 241.268,216.071 242.388,218.842 245.158 C 221.776 248.092,222.740 248.800,223.803 248.800 C 224.351 248.800,224.800 248.980,224.800 249.200 C 224.800 249.420,225.081 249.600,225.424 249.600 C 225.767 249.600,225.943 249.431,225.816 249.225 C 225.512 248.734,223.227 247.600,222.541 247.600 C 221.734 247.600,216.400 242.113,216.400 241.283 C 216.400 240.885,216.235 240.389,216.034 240.180 C 215.832 239.971,215.607 239.400,215.534 238.910 C 215.432 238.233,215.257 238.110,214.803 238.394 M176.800 238.920 C 176.800 239.294,177.072 239.600,177.405 239.600 C 177.738 239.600,178.360 239.818,178.787 240.085 C 179.214 240.352,179.680 240.454,179.822 240.311 C 180.275 239.859,179.584 239.200,178.656 239.200 C 178.163 239.200,177.544 238.984,177.280 238.720 C 176.907 238.347,176.800 238.391,176.800 238.920 M199.600 239.471 C 199.600 240.114,199.767 240.811,199.971 241.020 C 200.176 241.229,200.401 242.016,200.471 242.769 C 200.598 244.119,201.600 245.064,201.600 243.833 C 201.600 243.485,201.420 243.200,201.200 243.200 C 200.980 243.200,200.800 242.322,200.800 241.249 C 200.800 240.003,200.583 239.118,200.200 238.800 C 199.690 238.377,199.600 238.477,199.600 239.471 M180.400 240.891 C 180.400 241.620,181.109 242.224,181.503 241.831 C 181.640 241.693,181.448 241.277,181.076 240.905 C 180.453 240.281,180.400 240.280,180.400 240.891 M181.686 244.583 C 181.659 247.510,178.804 250.242,175.510 250.490 C 174.243 250.586,173.606 251.600,174.813 251.600 C 175.246 251.600,175.600 251.420,175.600 251.200 C 175.600 250.980,175.922 250.800,176.315 250.800 C 177.080 250.800,179.642 249.595,180.642 248.765 C 182.280 247.406,183.287 243.702,182.253 242.844 C 181.801 242.469,181.702 242.774,181.686 244.583 M201.613 245.317 C 201.606 245.712,202.050 246.520,202.600 247.113 C 203.150 247.707,203.600 248.599,203.600 249.096 C 203.600 249.593,203.780 250.000,204.000 250.000 C 204.220 250.000,204.400 250.180,204.400 250.400 C 204.400 250.620,205.106 251.506,205.970 252.370 C 206.833 253.233,207.739 254.313,207.984 254.770 C 208.228 255.226,208.692 255.600,209.014 255.600 C 209.336 255.600,209.600 255.780,209.600 256.000 C 209.600 256.220,209.840 256.400,210.132 256.400 C 210.425 256.400,210.906 256.850,211.200 257.400 C 211.494 257.950,211.975 258.400,212.268 258.400 C 212.560 258.400,212.800 258.670,212.800 259.000 C 212.800 259.377,213.180 259.600,213.824 259.600 C 214.404 259.600,214.740 259.773,214.600 260.000 C 214.455 260.235,214.888 260.400,215.653 260.400 C 217.115 260.400,216.184 259.240,214.700 259.213 C 214.315 259.206,214.000 259.020,214.000 258.800 C 214.000 258.580,213.730 258.400,213.400 258.400 C 213.070 258.400,212.800 258.251,212.800 258.068 C 212.800 257.885,211.945 257.123,210.900 256.374 C 209.855 255.626,208.550 254.477,208.000 253.822 C 207.450 253.168,206.685 252.360,206.300 252.027 C 205.915 251.694,205.600 251.192,205.600 250.911 C 205.600 250.630,205.465 250.398,205.300 250.395 C 205.135 250.393,204.656 249.673,204.236 248.795 C 203.815 247.918,203.320 247.200,203.136 247.200 C 202.951 247.200,202.800 246.964,202.800 246.676 C 202.800 245.769,201.628 244.428,201.613 245.317 M150.289 247.205 C 149.417 248.223,149.351 249.104,150.200 248.400 C 150.530 248.126,150.800 247.654,150.800 247.351 C 150.800 246.554,151.406 246.668,153.200 247.800 C 154.071 248.350,155.150 248.800,155.597 248.800 C 156.045 248.800,156.760 249.018,157.187 249.285 C 158.021 249.806,158.649 249.526,158.216 248.827 C 158.071 248.592,157.333 248.400,156.576 248.400 C 155.819 248.400,155.200 248.220,155.200 248.000 C 155.200 247.780,154.827 247.600,154.371 247.600 C 153.916 247.600,153.273 247.330,152.943 247.000 C 152.115 246.172,151.107 246.249,150.289 247.205 M248.812 246.785 C 248.488 246.989,248.363 247.296,248.533 247.467 C 248.704 247.637,248.990 247.539,249.170 247.249 C 249.773 246.273,250.991 246.912,251.123 248.273 C 251.288 249.969,252.400 250.972,252.400 249.425 C 252.400 248.812,252.229 248.459,252.000 248.600 C 251.769 248.743,251.600 248.366,251.600 247.709 C 251.600 246.483,250.085 245.981,248.812 246.785 M246.000 248.000 C 246.000 248.220,245.280 248.400,244.400 248.400 C 243.244 248.400,242.800 248.567,242.800 249.000 C 242.800 249.330,243.070 249.600,243.400 249.600 C 243.730 249.600,244.000 249.420,244.000 249.200 C 244.000 248.980,244.585 248.794,245.300 248.787 C 246.015 248.780,246.949 248.510,247.376 248.187 C 248.121 247.624,248.109 247.600,247.076 247.600 C 246.484 247.600,246.000 247.780,246.000 248.000 M148.900 249.488 C 148.625 249.586,148.400 249.932,148.400 250.257 C 148.400 250.582,148.220 250.736,148.000 250.600 C 147.780 250.464,147.600 250.528,147.600 250.743 C 147.600 250.958,147.825 251.224,148.100 251.335 C 148.500 251.496,148.500 251.543,148.100 251.568 C 147.825 251.586,147.600 252.072,147.600 252.649 C 147.600 253.536,147.693 253.621,148.200 253.200 C 148.530 252.926,148.800 252.220,148.800 251.631 C 148.800 251.042,149.013 250.347,149.273 250.087 C 149.821 249.539,149.627 249.229,148.900 249.488 M159.424 250.187 C 159.851 250.510,160.965 250.780,161.900 250.787 C 162.835 250.794,163.600 250.980,163.600 251.200 C 163.600 251.420,163.975 251.600,164.433 251.600 C 166.053 251.600,164.929 250.599,163.169 250.475 C 162.196 250.406,161.229 250.181,161.020 249.975 C 160.811 249.769,160.192 249.600,159.644 249.600 C 158.682 249.600,158.674 249.620,159.424 250.187 M227.376 250.213 C 227.833 250.558,229.029 250.800,230.276 250.800 C 231.444 250.800,232.400 250.980,232.400 251.200 C 232.400 251.420,233.019 251.600,233.776 251.600 C 234.533 251.600,235.264 251.420,235.400 251.200 C 235.536 250.980,236.672 250.794,237.924 250.786 C 239.176 250.778,240.650 250.514,241.200 250.200 L 242.200 249.628 240.900 249.614 C 240.185 249.606,239.600 249.780,239.600 250.000 C 239.600 250.248,237.467 250.400,234.000 250.400 C 230.533 250.400,228.400 250.248,228.400 250.000 C 228.400 249.780,227.995 249.606,227.500 249.613 C 226.623 249.625,226.619 249.640,227.376 250.213 M253.056 252.792 C 253.816 254.316,254.400 254.677,254.400 253.624 C 254.400 253.171,254.220 252.800,254.000 252.800 C 253.780 252.800,253.600 252.530,253.600 252.200 C 253.600 251.870,253.344 251.600,253.031 251.600 C 252.544 251.600,252.548 251.773,253.056 252.792 M193.272 254.603 C 192.608 255.367,192.545 255.600,193.003 255.600 C 193.331 255.600,193.600 255.345,193.600 255.033 C 193.600 254.722,193.825 254.386,194.100 254.288 C 194.375 254.190,194.496 253.996,194.370 253.858 C 194.243 253.719,193.749 254.055,193.272 254.603 M254.400 255.343 C 254.400 255.678,254.580 256.064,254.800 256.200 C 255.597 256.693,255.217 257.980,254.200 258.236 C 253.650 258.374,253.200 258.647,253.200 258.843 C 253.200 259.040,252.862 259.200,252.449 259.200 C 252.036 259.200,251.474 259.470,251.200 259.800 C 250.780 260.307,250.860 260.400,251.718 260.400 C 252.276 260.400,252.796 260.212,252.873 259.982 C 252.949 259.752,253.394 259.536,253.862 259.500 C 254.379 259.462,254.634 259.233,254.513 258.918 C 254.393 258.604,254.619 258.400,255.091 258.400 C 256.089 258.400,256.490 257.991,256.035 257.437 C 255.838 257.197,255.614 256.564,255.538 256.031 C 255.386 254.964,254.400 254.368,254.400 255.343 M146.096 256.395 C 145.438 257.449,145.467 258.400,146.157 258.400 C 146.464 258.400,146.818 258.670,146.945 259.000 C 147.071 259.330,147.541 259.600,147.987 259.600 C 148.434 259.600,148.800 259.780,148.800 260.000 C 148.800 260.220,149.284 260.400,149.876 260.400 C 151.166 260.400,150.014 259.237,148.700 259.213 C 148.315 259.206,148.000 259.020,148.000 258.800 C 148.000 258.580,147.730 258.400,147.400 258.400 C 146.779 258.400,146.660 258.034,146.784 256.500 C 146.874 255.393,146.735 255.372,146.096 256.395 M191.278 256.809 C 190.795 257.327,190.400 257.897,190.400 258.075 C 190.400 258.254,190.130 258.400,189.800 258.400 C 189.470 258.400,189.200 258.541,189.200 258.712 C 189.200 258.884,188.615 259.260,187.900 259.548 C 187.149 259.850,186.817 260.156,187.115 260.274 C 187.742 260.521,190.400 259.313,190.400 258.781 C 190.400 258.572,190.670 258.400,191.000 258.400 C 191.330 258.400,191.600 258.145,191.600 257.833 C 191.600 257.522,191.807 257.198,192.060 257.113 C 192.313 257.029,192.438 256.714,192.338 256.413 C 192.203 256.010,191.925 256.114,191.278 256.809 M151.600 261.000 C 151.600 261.373,151.978 261.600,152.600 261.600 C 153.150 261.600,153.600 261.780,153.600 262.000 C 153.600 262.220,154.084 262.400,154.676 262.400 C 155.709 262.400,155.721 262.376,154.976 261.813 C 154.549 261.490,153.795 261.220,153.300 261.213 C 152.805 261.206,152.400 261.020,152.400 260.800 C 152.400 260.580,152.220 260.400,152.000 260.400 C 151.780 260.400,151.600 260.670,151.600 261.000 M186.000 260.800 C 186.000 261.020,185.572 261.200,185.049 261.200 C 184.526 261.200,183.874 261.470,183.600 261.800 C 183.192 262.291,183.220 262.400,183.751 262.400 C 184.108 262.400,184.400 262.220,184.400 262.000 C 184.400 261.780,184.850 261.600,185.400 261.600 C 186.022 261.600,186.400 261.373,186.400 261.000 C 186.400 260.670,186.310 260.400,186.200 260.400 C 186.090 260.400,186.000 260.580,186.000 260.800 M217.632 260.900 C 217.610 261.388,217.902 261.600,218.600 261.600 C 219.150 261.600,219.600 261.780,219.600 262.000 C 219.600 262.220,219.892 262.400,220.249 262.400 C 220.780 262.400,220.808 262.291,220.400 261.800 C 220.126 261.470,219.489 261.200,218.984 261.200 C 218.480 261.200,217.976 260.975,217.865 260.700 C 217.744 260.401,217.650 260.482,217.632 260.900 M248.800 260.800 C 248.800 261.020,248.462 261.200,248.049 261.200 C 247.636 261.200,247.074 261.470,246.800 261.800 C 246.486 262.178,246.459 262.400,246.727 262.400 C 246.961 262.400,247.264 262.220,247.400 262.000 C 247.536 261.780,248.171 261.600,248.811 261.600 C 249.681 261.600,249.917 261.449,249.745 261.000 C 249.487 260.327,248.800 260.182,248.800 260.800 M156.800 263.000 C 156.800 263.461,157.314 263.600,159.024 263.600 C 160.247 263.600,161.148 263.760,161.027 263.957 C 160.627 264.603,177.178 264.487,179.000 263.831 C 180.464 263.303,179.669 263.253,169.630 263.237 C 162.691 263.227,158.510 263.070,158.250 262.810 C 157.643 262.203,156.800 262.313,156.800 263.000 M181.055 263.000 C 180.899 263.408,181.077 263.600,181.613 263.600 C 182.046 263.600,182.400 263.330,182.400 263.000 C 182.400 262.670,182.149 262.400,181.843 262.400 C 181.536 262.400,181.182 262.670,181.055 263.000 M221.855 263.000 C 222.011 263.406,222.647 263.600,223.819 263.600 C 224.773 263.600,225.664 263.780,225.800 264.000 C 225.950 264.243,228.937 264.400,233.424 264.400 C 238.075 264.400,240.800 264.252,240.800 264.000 C 240.800 263.780,241.779 263.600,242.976 263.600 C 245.176 263.600,246.240 263.020,244.949 262.525 C 244.546 262.370,244.181 262.457,244.091 262.728 C 243.886 263.341,222.800 263.412,222.800 262.800 C 222.800 262.580,222.536 262.400,222.213 262.400 C 221.855 262.400,221.715 262.635,221.855 263.000 " stroke="none" fill="#8c8c94" fill-rule="evenodd"></path></g></svg>